<svg width="28" height="28" viewBox="0 0 28 28" fill="none" xmlns="http://www.w3.org/2000/svg">
<path d="M3.5 24.5H5.6L18.5375 11.5625L16.4375 9.4625L3.5 22.4V24.5ZM24.95 9.3875L18.575 3.0875L20.675 0.9875C21.25 0.4125 21.9565 0.125 22.7945 0.125C23.6325 0.125 24.3385 0.4125 24.9125 0.9875L27.0125 3.0875C27.5875 3.6625 27.8875 4.3565 27.9125 5.1695C27.9375 5.9825 27.6625 6.676 27.0875 7.25L24.95 9.3875ZM22.775 11.6L6.875 27.5H0.5V21.125L16.4 5.225L22.775 11.6ZM17.4875 10.5125L16.4375 9.4625L18.5375 11.5625L17.4875 10.5125Z" fill="#3E3E3E"/>
</svg>
