<svg width="54" height="55" viewBox="0 0 54 55" fill="none" xmlns="http://www.w3.org/2000/svg">
<path d="M27 15.125C28.4918 15.125 29.9226 15.7176 30.9775 16.7725C32.0324 17.8274 32.625 19.2582 32.625 20.75C32.625 21.4887 32.4795 22.2201 32.1968 22.9026C31.9141 23.5851 31.4998 24.2051 30.9775 24.7275C30.4551 25.2498 29.8351 25.6641 29.1526 25.9468C28.4701 26.2295 27.7387 26.375 27 26.375C25.5082 26.375 24.0774 25.7824 23.0225 24.7275C21.9676 23.6726 21.375 22.2418 21.375 20.75C21.375 19.2582 21.9676 17.8274 23.0225 16.7725C24.0774 15.7176 25.5082 15.125 27 15.125ZM27 5C31.1772 5 35.1832 6.65937 38.1369 9.61307C41.0906 12.5668 42.75 16.5728 42.75 20.75C42.75 32.5625 27 50 27 50C27 50 11.25 32.5625 11.25 20.75C11.25 16.5728 12.9094 12.5668 15.8631 9.61307C18.8168 6.65937 22.8228 5 27 5ZM27 9.5C24.0163 9.5 21.1548 10.6853 19.045 12.795C16.9353 14.9048 15.75 17.7663 15.75 20.75C15.75 23 15.75 27.5 27 42.5975C38.25 27.5 38.25 23 38.25 20.75C38.25 17.7663 37.0647 14.9048 34.955 12.795C32.8452 10.6853 29.9837 9.5 27 9.5Z" fill="#545454"/>
</svg>
