<svg width="55" height="55" viewBox="0 0 55 55" fill="none" xmlns="http://www.w3.org/2000/svg">
<path d="M50.4148 22.9165H15.6128L30.7441 7.84978C31.6075 6.98744 32.0926 5.81784 32.0926 4.5983C32.0926 3.37875 31.6075 2.20916 30.7441 1.34681C29.8807 0.484462 28.7096 0 27.4886 0C26.2675 0 25.0965 0.484462 24.2331 1.34681L1.30686 24.2446C0.889412 24.6801 0.562187 25.1937 0.343955 25.7559C-0.114652 26.8708 -0.114652 28.1214 0.343955 29.2363C0.562187 29.7985 0.889412 30.312 1.30686 30.7476L24.2331 53.6454C24.6593 54.0746 25.1664 54.4153 25.7252 54.6478C26.2839 54.8803 26.8833 55 27.4886 55C28.0939 55 28.6932 54.8803 29.2519 54.6478C29.8107 54.4153 30.3178 54.0746 30.7441 53.6454C31.1739 53.2196 31.515 52.7131 31.7478 52.1551C31.9805 51.597 32.1004 50.9984 32.1004 50.3939C32.1004 49.7893 31.9805 49.1908 31.7478 48.6327C31.515 48.0746 31.1739 47.5681 30.7441 47.1424L15.6128 32.0757H50.4148C51.6308 32.0757 52.7971 31.5932 53.657 30.7343C54.5169 29.8755 55 28.7107 55 27.4961C55 26.2815 54.5169 25.1167 53.657 24.2579C52.7971 23.399 51.6308 22.9165 50.4148 22.9165Z" fill="#7A61FF"/>
</svg>
