<svg width="121" height="30" viewBox="0 0 121 30" fill="none" xmlns="http://www.w3.org/2000/svg">
<rect width="120.59" height="29.7106" rx="8" fill="#E79F33"/>
<path d="M40.702 12.1306H37.5912C37.5344 11.7282 37.4184 11.3707 37.2432 11.0582C37.068 10.7409 36.8431 10.4711 36.5685 10.2485C36.2939 10.026 35.9766 9.85552 35.6168 9.73715C35.2617 9.61878 34.8758 9.55959 34.4591 9.55959C33.7063 9.55959 33.0505 9.74662 32.4918 10.1207C31.9331 10.49 31.4998 11.0298 31.1921 11.74C30.8843 12.4455 30.7304 13.3025 30.7304 14.311C30.7304 15.3479 30.8843 16.2192 31.1921 16.9246C31.5046 17.6301 31.9402 18.1628 32.4989 18.5227C33.0576 18.8825 33.7039 19.0624 34.4378 19.0624C34.8497 19.0624 35.2309 19.008 35.5813 18.8991C35.9364 18.7902 36.2513 18.6316 36.5259 18.4232C36.8005 18.2102 37.0278 17.9521 37.2077 17.6491C37.3924 17.3461 37.5202 17.0004 37.5912 16.6121L40.702 16.6264C40.6215 17.294 40.4203 17.9379 40.0983 18.5582C39.7811 19.1737 39.3526 19.7253 38.8128 20.213C38.2778 20.696 37.6386 21.0795 36.8952 21.3636C36.1566 21.6429 35.3209 21.7826 34.3881 21.7826C33.0907 21.7826 31.9307 21.489 30.908 20.9019C29.89 20.3148 29.0851 19.4649 28.4932 18.3522C27.9061 17.2395 27.6125 15.8925 27.6125 14.311C27.6125 12.7248 27.9108 11.3754 28.5074 10.2627C29.104 9.15003 29.9137 8.30249 30.9364 7.7201C31.9591 7.13298 33.1097 6.83942 34.3881 6.83942C35.2309 6.83942 36.0121 6.95779 36.7318 7.19454C37.4563 7.43128 38.0978 7.77692 38.6566 8.23147C39.2153 8.68128 39.6698 9.23289 40.0202 9.8863C40.3753 10.5397 40.6026 11.2878 40.702 12.1306ZM45.9612 21.7897C45.2652 21.7897 44.645 21.669 44.1005 21.4275C43.5559 21.1813 43.1251 20.8191 42.8078 20.3408C42.4953 19.8579 42.3391 19.2566 42.3391 18.5369C42.3391 17.9308 42.4504 17.4218 42.6729 17.0099C42.8954 16.5979 43.1985 16.2665 43.582 16.0156C43.9655 15.7646 44.4011 15.5752 44.8888 15.4474C45.3812 15.3195 45.8973 15.2296 46.4371 15.1775C47.0716 15.1112 47.5829 15.0496 47.9712 14.9928C48.3594 14.9313 48.6412 14.8413 48.8164 14.7229C48.9916 14.6046 49.0791 14.4294 49.0791 14.1974V14.1548C49.0791 13.705 48.9371 13.3569 48.653 13.1107C48.3737 12.8645 47.9759 12.7414 47.4598 12.7414C46.9153 12.7414 46.4821 12.8621 46.1601 13.1036C45.8381 13.3404 45.6251 13.6387 45.5209 13.9985L42.7226 13.7712C42.8647 13.1084 43.144 12.5354 43.5607 12.0525C43.9773 11.5648 44.5148 11.1907 45.1729 10.9303C45.8358 10.6652 46.6028 10.5326 47.474 10.5326C48.0801 10.5326 48.6601 10.6036 49.2141 10.7457C49.7728 10.8877 50.2676 11.1079 50.6985 11.4062C51.1341 11.7045 51.4773 12.088 51.7283 12.5568C51.9792 13.0208 52.1047 13.5771 52.1047 14.2258V21.5837H49.2354V20.071H49.1502C48.975 20.4119 48.7406 20.7125 48.447 20.9729C48.1535 21.2286 47.8007 21.4299 47.3888 21.5766C46.9769 21.7187 46.501 21.7897 45.9612 21.7897ZM46.8277 19.7016C47.2728 19.7016 47.6658 19.614 48.0067 19.4389C48.3476 19.2589 48.6151 19.0175 48.8093 18.7144C49.0034 18.4114 49.1005 18.0681 49.1005 17.6846V16.5269C49.0058 16.5885 48.8755 16.6453 48.7098 16.6974C48.5488 16.7447 48.3666 16.7897 48.163 16.8323C47.9594 16.8702 47.7558 16.9057 47.5522 16.9389C47.3486 16.9673 47.1639 16.9933 46.9982 17.017C46.6431 17.0691 46.3329 17.1519 46.0678 17.2656C45.8026 17.3792 45.5967 17.5331 45.4499 17.7272C45.3031 17.9166 45.2297 18.1533 45.2297 18.4374C45.2297 18.8494 45.3789 19.1642 45.6772 19.382C45.9802 19.5951 46.3637 19.7016 46.8277 19.7016ZM57.4776 15.2769V21.5837H54.452V10.6746H57.3355V12.5994H57.4634C57.7049 11.9649 58.1097 11.463 58.6779 11.0937C59.246 10.7196 59.935 10.5326 60.7446 10.5326C61.5022 10.5326 62.1627 10.6983 62.7262 11.0298C63.2896 11.3612 63.7276 11.8347 64.0401 12.4502C64.3526 13.061 64.5088 13.7902 64.5088 14.6377V21.5837H61.4833V15.1775C61.488 14.5099 61.3175 13.989 60.9719 13.615C60.6263 13.2362 60.1504 13.0468 59.5443 13.0468C59.1371 13.0468 58.7773 13.1344 58.4648 13.3096C58.157 13.4848 57.9156 13.7405 57.7404 14.0766C57.5699 14.4081 57.4823 14.8082 57.4776 15.2769ZM71.8224 21.7968C70.705 21.7968 69.7438 21.5601 68.9389 21.0866C68.1387 20.6084 67.5232 19.9455 67.0923 19.0979C66.6661 18.2504 66.4531 17.275 66.4531 16.1718C66.4531 15.0544 66.6685 14.0743 67.0994 13.2315C67.535 12.3839 68.1529 11.7234 68.9531 11.2499C69.7533 10.7717 70.705 10.5326 71.8082 10.5326C72.7599 10.5326 73.5932 10.7054 74.3082 11.0511C75.0232 11.3967 75.589 11.882 76.0056 12.507C76.4223 13.132 76.6519 13.8659 76.6946 14.7087H73.8394C73.759 14.1642 73.5459 13.7263 73.2002 13.3948C72.8593 13.0586 72.4119 12.8906 71.8579 12.8906C71.3892 12.8906 70.9796 13.0184 70.6292 13.2741C70.2836 13.525 70.0137 13.892 69.8196 14.3749C69.6254 14.8579 69.5284 15.4426 69.5284 16.1292C69.5284 16.8252 69.6231 17.4171 69.8125 17.9048C70.0066 18.3925 70.2788 18.7641 70.6292 19.0198C70.9796 19.2755 71.3892 19.4033 71.8579 19.4033C72.2036 19.4033 72.5137 19.3323 72.7883 19.1903C73.0677 19.0482 73.2973 18.8423 73.4772 18.5724C73.6619 18.2978 73.7826 17.9687 73.8394 17.5852H76.6946C76.6472 18.4185 76.4199 19.1524 76.0127 19.7869C75.6103 20.4166 75.0539 20.909 74.3437 21.2641C73.6335 21.6193 72.793 21.7968 71.8224 21.7968ZM83.6033 21.7968C82.4811 21.7968 81.5152 21.5695 80.7056 21.115C79.9006 20.6557 79.2804 20.007 78.8448 19.169C78.4092 18.3262 78.1914 17.3295 78.1914 16.1789C78.1914 15.0568 78.4092 14.0719 78.8448 13.2244C79.2804 12.3768 79.8935 11.7163 80.6843 11.2428C81.4797 10.7693 82.4125 10.5326 83.4826 10.5326C84.2023 10.5326 84.8722 10.6486 85.4925 10.8806C86.1175 11.1079 86.662 11.4512 87.126 11.9104C87.5948 12.3697 87.9594 12.9474 88.2198 13.6434C88.4802 14.3347 88.6104 15.1443 88.6104 16.0724V16.9033H79.3987V15.0283H85.7624C85.7624 14.5927 85.6677 14.2068 85.4783 13.8707C85.2889 13.5345 85.0261 13.2717 84.6899 13.0823C84.3585 12.8882 83.9726 12.7911 83.5323 12.7911C83.073 12.7911 82.6658 12.8977 82.3107 13.1107C81.9603 13.3191 81.6857 13.6008 81.4868 13.9559C81.288 14.3063 81.1862 14.6969 81.1814 15.1278V16.9104C81.1814 17.4502 81.2809 17.9166 81.4797 18.3096C81.6833 18.7026 81.9698 19.0056 82.3391 19.2187C82.7084 19.4318 83.1464 19.5383 83.653 19.5383C83.9892 19.5383 84.2969 19.4909 84.5763 19.3962C84.8557 19.3015 85.0948 19.1595 85.2936 18.9701C85.4925 18.7807 85.644 18.5487 85.7482 18.2741L88.5465 18.4587C88.4044 19.1311 88.1132 19.7182 87.6729 20.2201C87.2373 20.7173 86.6738 21.1055 85.9826 21.3849C85.296 21.6595 84.5029 21.7968 83.6033 21.7968ZM93.6104 7.03829V21.5837H90.5848V7.03829H93.6104Z" fill="white"/>
</svg>
