<svg width="35" height="35" viewBox="0 0 37 37" fill="none" xmlns="http://www.w3.org/2000/svg">
<path d="M9.86673 18.5001L17.2667 24.6667L27.1334 12.3334M18.5001 35.7667C16.2326 35.7667 13.9873 35.3201 11.8924 34.4524C9.79751 33.5847 7.89405 32.3128 6.29069 30.7094C4.68733 29.1061 3.41548 27.2026 2.54775 25.1077C1.68001 23.0128 1.2334 20.7676 1.2334 18.5001C1.2334 16.2326 1.68001 13.9873 2.54775 11.8924C3.41548 9.79751 4.68733 7.89405 6.29069 6.29069C7.89405 4.68733 9.79751 3.41548 11.8924 2.54775C13.9873 1.68001 16.2326 1.2334 18.5001 1.2334C23.0795 1.2334 27.4713 3.05256 30.7094 6.29069C33.9476 9.52882 35.7667 13.9207 35.7667 18.5001C35.7667 23.0795 33.9476 27.4713 30.7094 30.7094C27.4713 33.9476 23.0795 35.7667 18.5001 35.7667Z" stroke="#17A1FA" stroke-width="2"/>
</svg>
