<svg width="26" height="26" viewBox="0 0 26 26" fill="none" xmlns="http://www.w3.org/2000/svg">
<path d="M12.9995 15.6833L3.60788 25.075C3.25649 25.4264 2.80927 25.6021 2.26621 25.6021C1.72316 25.6021 1.27593 25.4264 0.924543 25.075C0.573155 24.7236 0.397461 24.2764 0.397461 23.7333C0.397461 23.1902 0.573155 22.743 0.924543 22.3916L10.3162 13L0.924543 3.6083C0.573155 3.25692 0.397461 2.80969 0.397461 2.26664C0.397461 1.72358 0.573155 1.27636 0.924543 0.924971C1.27593 0.573582 1.72316 0.397888 2.26621 0.397888C2.80927 0.397888 3.25649 0.573582 3.60788 0.924971L12.9995 10.3166L22.3912 0.924971C22.7426 0.573582 23.1898 0.397888 23.7329 0.397888C24.2759 0.397888 24.7232 0.573582 25.0745 0.924971C25.4259 1.27636 25.6016 1.72358 25.6016 2.26664C25.6016 2.80969 25.4259 3.25692 25.0745 3.6083L15.6829 13L25.0745 22.3916C25.4259 22.743 25.6016 23.1902 25.6016 23.7333C25.6016 24.2764 25.4259 24.7236 25.0745 25.075C24.7232 25.4264 24.2759 25.6021 23.7329 25.6021C23.1898 25.6021 22.7426 25.4264 22.3912 25.075L12.9995 15.6833Z" fill="#585858"/>
</svg>
