<svg width="36" height="36" viewBox="0 0 36 36" fill="none" xmlns="http://www.w3.org/2000/svg">
<path d="M13.5 33C13.1022 33 12.7206 32.842 12.4393 32.5607C12.158 32.2794 12 31.8978 12 31.5V27H6C5.20435 27 4.44129 26.6839 3.87868 26.1213C3.31607 25.5587 3 24.7956 3 24V6C3 5.20435 3.31607 4.44129 3.87868 3.87868C4.44129 3.31607 5.20435 3 6 3H30C30.7956 3 31.5587 3.31607 32.1213 3.87868C32.6839 4.44129 33 5.20435 33 6V24C33 24.7956 32.6839 25.5587 32.1213 26.1213C31.5587 26.6839 30.7956 27 30 27H20.85L15.3 32.565C15 32.85 14.625 33 14.25 33H13.5ZM15 24V28.62L19.62 24H30V6H6V24H15ZM25.5 16.5H22.5V13.5H25.5V16.5ZM19.5 16.5H16.5V13.5H19.5V16.5ZM13.5 16.5H10.5V13.5H13.5V16.5Z" fill="#0F0F0F"/>
</svg>
