<svg width="50" height="44" viewBox="0 0 50 44" fill="none" xmlns="http://www.w3.org/2000/svg">
<path d="M2.59743 43.7499H47.3783C49.2391 43.7499 50.3991 41.7441 49.4808 40.1249L27.0783 1.45827C26.8678 1.08958 26.5636 0.783115 26.1965 0.56995C25.8293 0.356784 25.4124 0.244507 24.9879 0.244507C24.5633 0.244507 24.1464 0.356784 23.7792 0.56995C23.4121 0.783115 23.1079 1.08958 22.8974 1.45827L0.494935 40.1249C-0.423399 41.7441 0.736601 43.7499 2.59743 43.7499ZM27.4166 36.4999H22.5833V31.6666H27.4166V36.4999ZM24.9999 26.8333C23.6708 26.8333 22.5833 25.7458 22.5833 24.4166V19.5833C22.5833 18.2541 23.6708 17.1666 24.9999 17.1666C26.3291 17.1666 27.4166 18.2541 27.4166 19.5833V24.4166C27.4166 25.7458 26.3291 26.8333 24.9999 26.8333Z" fill="red"/>
</svg>
