<svg width="36" height="36" viewBox="0 0 36 36" fill="none" xmlns="http://www.w3.org/2000/svg">
<path d="M32.8125 13.575L26.4 7.275L28.0125 5.6625C28.6125 5.0625 29.3315 4.7625 30.1695 4.7625C31.0075 4.7625 31.7135 5.0625 32.2875 5.6625L34.3875 7.8C34.9625 8.375 35.25 9.075 35.25 9.9C35.25 10.725 34.9625 11.425 34.3875 12L32.8125 13.575ZM7.5 35.55C6.675 35.55 5.9685 35.2565 5.3805 34.6695C4.7925 34.0825 4.499 33.376 4.5 32.55V11.55C4.5 10.725 4.794 10.0185 5.382 9.4305C5.97 8.8425 6.676 8.549 7.5 8.55H20.8875L11.8125 17.625C11.3875 18.05 11.0625 18.5375 10.8375 19.0875C10.6125 19.6375 10.5 20.2125 10.5 20.8125V26.55C10.5 27.375 10.794 28.0815 11.382 28.6695C11.97 29.2575 12.676 29.551 13.5 29.55H19.2375C19.8375 29.55 20.4125 29.4375 20.9625 29.2125C21.5125 28.9875 22 28.6625 22.425 28.2375L31.5 19.125V32.55C31.5 33.375 31.206 34.0815 30.618 34.6695C30.03 35.2575 29.324 35.551 28.5 35.55H7.5ZM15 26.55C14.575 26.55 14.2185 26.4065 13.9305 26.1195C13.6425 25.8325 13.499 25.476 13.5 25.05V21.4125C13.5 21.0125 13.575 20.631 13.725 20.268C13.875 19.905 14.0875 19.5865 14.3625 19.3125L24.2625 9.4125L30.675 15.7125L20.7375 25.65C20.4625 25.925 20.144 26.144 19.782 26.307C19.42 26.47 19.0385 26.551 18.6375 26.55H15Z" fill="#343A42"/>
</svg>
