<svg width="29" height="29" viewBox="0 0 29 29" fill="none" xmlns="http://www.w3.org/2000/svg">
<path fill-rule="evenodd" clip-rule="evenodd" d="M19.3333 10.8751C19.3333 12.157 18.8241 13.3863 17.9177 14.2928C17.0112 15.1992 15.7819 15.7084 14.5 15.7084C13.2181 15.7084 11.9887 15.1992 11.0823 14.2928C10.1759 13.3863 9.66666 12.157 9.66666 10.8751C9.66666 9.5932 10.1759 8.36382 11.0823 7.4574C11.9887 6.55097 13.2181 6.04175 14.5 6.04175C15.7819 6.04175 17.0112 6.55097 17.9177 7.4574C18.8241 8.36382 19.3333 9.5932 19.3333 10.8751ZM16.9167 10.8751C16.9167 11.516 16.662 12.1307 16.2088 12.5839C15.7556 13.0371 15.1409 13.2917 14.5 13.2917C13.8591 13.2917 13.2444 13.0371 12.7911 12.5839C12.3379 12.1307 12.0833 11.516 12.0833 10.8751C12.0833 10.2341 12.3379 9.61945 12.7911 9.16624C13.2444 8.71303 13.8591 8.45841 14.5 8.45841C15.1409 8.45841 15.7556 8.71303 16.2088 9.16624C16.662 9.61945 16.9167 10.2341 16.9167 10.8751Z" fill="#404040"/>
<path fill-rule="evenodd" clip-rule="evenodd" d="M14.5 1.20837C7.15937 1.20837 1.20833 7.15942 1.20833 14.5C1.20833 21.8407 7.15937 27.7917 14.5 27.7917C21.8406 27.7917 27.7917 21.8407 27.7917 14.5C27.7917 7.15942 21.8406 1.20837 14.5 1.20837ZM3.62499 14.5C3.62499 17.0255 4.48654 19.3503 5.9305 21.1966C6.94457 19.8649 8.25279 18.7857 9.75298 18.0433C11.2532 17.3008 12.9047 16.9153 14.5785 16.9167C16.2307 16.9151 17.8615 17.2907 19.3465 18.0148C20.8316 18.7389 22.1318 19.7924 23.148 21.0951C24.195 19.722 24.8999 18.1193 25.2045 16.4196C25.5091 14.7199 25.4045 12.9721 24.8995 11.3209C24.3945 9.66965 23.5036 8.16239 22.3004 6.92384C21.0972 5.68528 19.6164 4.75104 17.9805 4.19841C16.3445 3.64577 14.6005 3.49064 12.8927 3.74584C11.185 4.00104 9.56249 4.65924 8.15959 5.66598C6.75669 6.67272 5.61368 7.99905 4.82515 9.53524C4.03661 11.0714 3.62521 12.7733 3.62499 14.5ZM14.5 25.375C12.0035 25.3788 9.5824 24.52 7.64633 22.9439C8.42562 21.8283 9.46286 20.9174 10.6698 20.2888C11.8768 19.6602 13.2177 19.3324 14.5785 19.3334C15.9224 19.3323 17.2471 19.6519 18.4427 20.2655C19.6383 20.8792 20.6702 21.7692 21.4527 22.8617C19.5016 24.489 17.0406 25.3786 14.5 25.375Z" fill="#404040"/>
</svg>
