<svg width="30" height="30" viewBox="0 0 30 30" fill="none" xmlns="http://www.w3.org/2000/svg">
<path d="M3.33333 0H26.6667C27.5507 0 28.3986 0.351189 29.0237 0.976311C29.6488 1.60143 30 2.44928 30 3.33333V26.6667C30 27.55 29.65 28.4 29.0167 29.0167C28.4 29.65 27.55 30 26.6667 30H3.33333C2.45 30 1.6 29.65 0.983333 29.0167C0.35 28.4 0 27.55 0 26.6667V3.33333C0 1.48333 1.48333 0 3.33333 0ZM13.3333 10H16.6667V6.66667H13.3333V10ZM18.3333 23.3333V20H16.6667V13.3333H11.6667V16.6667H13.3333V20H11.6667V23.3333H18.3333Z" fill="#17A1FA"/>
</svg>
