<svg width="15" height="4" viewBox="0 0 15 4" fill="none" xmlns="http://www.w3.org/2000/svg">
<path d="M11.25 2C11.25 1.46957 11.4475 0.96086 11.7992 0.585787C12.1508 0.210714 12.6277 0 13.125 0C13.6223 0 14.0992 0.210714 14.4508 0.585787C14.8025 0.96086 15 1.46957 15 2C15 2.53043 14.8025 3.03914 14.4508 3.41421C14.0992 3.78929 13.6223 4 13.125 4C12.6277 4 12.1508 3.78929 11.7992 3.41421C11.4475 3.03914 11.25 2.53043 11.25 2ZM5.625 2C5.625 1.46957 5.82254 0.96086 6.17418 0.585787C6.52581 0.210714 7.00272 0 7.5 0C7.99728 0 8.47419 0.210714 8.82582 0.585787C9.17746 0.96086 9.375 1.46957 9.375 2C9.375 2.53043 9.17746 3.03914 8.82582 3.41421C8.47419 3.78929 7.99728 4 7.5 4C7.00272 4 6.52581 3.78929 6.17418 3.41421C5.82254 3.03914 5.625 2.53043 5.625 2ZM0 2C0 1.46957 0.197544 0.96086 0.549175 0.585787C0.900805 0.210714 1.37772 0 1.875 0C2.37228 0 2.84919 0.210714 3.20083 0.585787C3.55246 0.96086 3.75 1.46957 3.75 2C3.75 2.53043 3.55246 3.03914 3.20083 3.41421C2.84919 3.78929 2.37228 4 1.875 4C1.37772 4 0.900805 3.78929 0.549175 3.41421C0.197544 3.03914 0 2.53043 0 2Z" fill="#404040"/>
</svg>
