<svg width="38" height="38" viewBox="0 0 38 38" fill="none" xmlns="http://www.w3.org/2000/svg">
<path d="M2.33331 31.5003C2.33331 29.2902 3.21129 27.1706 4.77409 25.6078C6.33689 24.045 8.45651 23.167 10.6666 23.167H27.3333C29.5434 23.167 31.6631 24.045 33.2259 25.6078C34.7887 27.1706 35.6666 29.2902 35.6666 31.5003C35.6666 32.6054 35.2277 33.6652 34.4463 34.4466C33.6649 35.228 32.605 35.667 31.5 35.667H6.49998C5.39491 35.667 4.3351 35.228 3.5537 34.4466C2.7723 33.6652 2.33331 32.6054 2.33331 31.5003Z" stroke="#2C2C2C" stroke-width="4" stroke-linejoin="round"/>
<path d="M19 14.8335C22.4518 14.8335 25.25 12.0353 25.25 8.5835C25.25 5.13172 22.4518 2.3335 19 2.3335C15.5482 2.3335 12.75 5.13172 12.75 8.5835C12.75 12.0353 15.5482 14.8335 19 14.8335Z" stroke="#2C2C2C" stroke-width="4"/>
</svg>
