<svg width="35" height="32" viewBox="0 0 35 32" fill="none" xmlns="http://www.w3.org/2000/svg">
<g filter="url(#filter0_i_45_3)">
<rect width="35" height="32" rx="7" fill="#E9E9E9"/>
<g clip-path="url(#clip0_45_3)">
<path d="M15.6925 8C13.9771 8 12.2615 8.65232 10.9567 9.95678C8.34757 12.5659 8.34757 16.8187 10.9567 19.4278C13.3993 21.8703 17.2747 22.0139 19.9003 19.8829L20.544 20.5266C20.5076 20.6575 20.4991 20.7834 20.5192 20.8957C20.5393 21.008 20.5874 21.1039 20.6603 21.1769L25.3317 25.8481C25.4652 25.9816 25.6732 26.0297 25.9098 25.9819C26.1464 25.9341 26.3923 25.7943 26.5935 25.5932C26.7946 25.3921 26.9344 25.1461 26.9821 24.9095C27.0299 24.6729 26.9817 24.4649 26.8482 24.3314L22.1772 19.6604C22.1042 19.5874 22.0082 19.5392 21.8958 19.5191C21.7834 19.499 21.6573 19.5075 21.5263 19.5439L20.8826 18.9003C23.0138 16.2744 22.8703 12.399 20.4279 9.95678C19.1235 8.65232 17.4079 8.00018 15.6925 8.00018V8ZM15.6925 9.47906C17.0239 9.47906 18.3556 9.98918 19.3758 11.0094C19.8608 11.4923 20.2457 12.0663 20.5083 12.6984C20.7709 13.3304 20.9061 14.0081 20.9061 14.6926C20.9061 15.377 20.7709 16.0547 20.5083 16.6868C20.2457 17.3189 19.8608 17.8928 19.3758 18.3757C18.8929 18.8608 18.3189 19.2456 17.6869 19.5082C17.0548 19.7709 16.3771 19.906 15.6927 19.906C15.0082 19.906 14.3305 19.7709 13.6984 19.5082C13.0664 19.2456 12.4924 18.8608 12.0095 18.3757C11.5245 17.8928 11.1396 17.3189 10.877 16.6868C10.6144 16.0547 10.4792 15.377 10.4792 14.6926C10.4792 14.0081 10.6144 13.3304 10.877 12.6984C11.1396 12.0663 11.5245 11.4923 12.0095 11.0094C13.0297 9.98918 14.3612 9.47906 15.6925 9.47906Z" fill="#403F3F"/>
<path d="M15.7455 11.1032C15.7986 11.1032 15.8499 11.1228 15.8893 11.1583L19.2724 13.9008C19.4195 14.0323 19.3261 14.107 19.129 14.1069H18.2552V17.5737C18.2552 17.6921 18.1591 17.7882 18.0405 17.7882H13.451C13.3941 17.7882 13.3395 17.7656 13.2992 17.7253C13.2589 17.685 13.2363 17.6304 13.2363 17.5735V14.1069H12.3626C12.1655 14.107 12.0722 14.0323 12.2191 13.9008L15.6022 11.1583C15.6416 11.123 15.6926 11.1032 15.7455 11.1032Z" fill="#403F3F"/>
</g>
</g>
<defs>
<filter id="filter0_i_45_3" x="0" y="0" width="35" height="36" filterUnits="userSpaceOnUse" color-interpolation-filters="sRGB">
<feFlood flood-opacity="0" result="BackgroundImageFix"/>
<feBlend mode="normal" in="SourceGraphic" in2="BackgroundImageFix" result="shape"/>
<feColorMatrix in="SourceAlpha" type="matrix" values="0 0 0 0 0 0 0 0 0 0 0 0 0 0 0 0 0 0 127 0" result="hardAlpha"/>
<feOffset dy="4"/>
<feGaussianBlur stdDeviation="2"/>
<feComposite in2="hardAlpha" operator="arithmetic" k2="-1" k3="1"/>
<feColorMatrix type="matrix" values="0 0 0 0 0 0 0 0 0 0 0 0 0 0 0 0 0 0 0.25 0"/>
<feBlend mode="normal" in2="shape" result="effect1_innerShadow_45_3"/>
</filter>
<clipPath id="clip0_45_3">
<rect width="18" height="18" fill="white" transform="translate(9 8)"/>
</clipPath>
</defs>
</svg>
