<svg width="76" height="76" viewBox="0 0 76 76" fill="none" xmlns="http://www.w3.org/2000/svg">
<rect width="76" height="76" rx="5" fill="#36465C"/>
<path d="M26.6953 10.6375C26.9521 10.4662 27.2538 10.3748 27.5625 10.3748C27.8712 10.3748 28.1729 10.4662 28.4297 10.6375L37.8047 16.8875C38.0186 17.0302 38.194 17.2236 38.3153 17.4503C38.4366 17.6771 38.5 17.9303 38.5 18.1875V30.6875C38.5 31.1019 38.3354 31.4993 38.0424 31.7923C37.7493 32.0854 37.3519 32.25 36.9375 32.25H30.6875V21.3125H24.4375V32.25H18.1875C17.7731 32.25 17.3757 32.0854 17.0826 31.7923C16.7896 31.4993 16.625 31.1019 16.625 30.6875V18.1875C16.625 17.9303 16.6884 17.6771 16.8097 17.4503C16.931 17.2236 17.1064 17.0302 17.3203 16.8875L26.6953 10.6375ZM53.35 19.9562C53.586 19.8214 53.8532 19.7505 54.125 19.7505C54.3968 19.7505 54.664 19.8214 54.9 19.9562L65.8375 26.2062C66.0766 26.3428 66.2754 26.5402 66.4137 26.7784C66.552 27.0166 66.6249 27.2871 66.625 27.5625V43.1875C66.625 43.6019 66.4604 43.9993 66.1674 44.2923C65.8743 44.5854 65.4769 44.75 65.0625 44.75H57.25V32.25H51V44.75H43.1875C42.7731 44.75 42.3757 44.5854 42.0826 44.2923C41.7896 43.9993 41.625 43.6019 41.625 43.1875V27.5625C41.6251 27.2871 41.698 27.0166 41.8363 26.7784C41.9746 26.5402 42.1734 26.3428 42.4125 26.2062L53.35 19.9562ZM11.2391 44.9156L23.7391 38.6656C23.9559 38.5572 24.1951 38.5008 24.4375 38.5008C24.6799 38.5008 24.9191 38.5572 25.1359 38.6656L37.6359 44.9156C37.8954 45.0453 38.1137 45.2446 38.2663 45.4914C38.4189 45.7381 38.4998 46.0224 38.5 46.3125V65.0625C38.5 65.4769 38.3354 65.8743 38.0424 66.1673C37.7493 66.4604 37.3519 66.625 36.9375 66.625H27.5625V52.5625H21.3125V66.625H11.9375C11.5231 66.625 11.1257 66.4604 10.8326 66.1673C10.5396 65.8743 10.375 65.4769 10.375 65.0625V46.3125C10.3752 46.0224 10.4561 45.7381 10.6087 45.4914C10.7613 45.2446 10.9796 45.0453 11.2391 44.9156Z" fill="white"/>
</svg>
