<svg width="95" height="25" viewBox="0 0 95 25" fill="none" xmlns="http://www.w3.org/2000/svg">
<rect x="0.5" y="0.5" width="94" height="24" rx="4.5" fill="white" stroke="#A7A7A7"/>
<path d="M29.1449 17V7.54545H32.3395C33.0781 7.54545 33.6844 7.67164 34.1584 7.92401C34.6323 8.17329 34.9832 8.51645 35.2109 8.95348C35.4387 9.39051 35.5526 9.88755 35.5526 10.4446C35.5526 11.0017 35.4387 11.4956 35.2109 11.9265C34.9832 12.3574 34.6339 12.6959 34.163 12.9421C33.6921 13.1853 33.0904 13.3068 32.358 13.3068H29.7727V12.2727H32.321C32.8258 12.2727 33.232 12.1989 33.5398 12.0511C33.8506 11.9034 34.0753 11.6941 34.2138 11.4233C34.3554 11.1494 34.4261 10.8232 34.4261 10.4446C34.4261 10.0661 34.3554 9.7352 34.2138 9.45206C34.0722 9.16892 33.846 8.9504 33.5352 8.79652C33.2243 8.63956 32.8134 8.56108 32.3026 8.56108H30.2898V17H29.1449ZM33.5952 12.7528L35.9219 17H34.5923L32.3026 12.7528H33.5952ZM45.4376 12.2727C45.4376 13.2699 45.2575 14.1316 44.8975 14.858C44.5374 15.5843 44.0434 16.1444 43.4156 16.5384C42.7877 16.9323 42.0706 17.1293 41.2643 17.1293C40.4579 17.1293 39.7409 16.9323 39.113 16.5384C38.4852 16.1444 37.9912 15.5843 37.6311 14.858C37.271 14.1316 37.091 13.2699 37.091 12.2727C37.091 11.2756 37.271 10.4138 37.6311 9.6875C37.9912 8.96117 38.4852 8.40104 39.113 8.0071C39.7409 7.61316 40.4579 7.41619 41.2643 7.41619C42.0706 7.41619 42.7877 7.61316 43.4156 8.0071C44.0434 8.40104 44.5374 8.96117 44.8975 9.6875C45.2575 10.4138 45.4376 11.2756 45.4376 12.2727ZM44.3296 12.2727C44.3296 11.4541 44.1927 10.7631 43.9188 10.1999C43.6479 9.63672 43.2802 9.21046 42.8154 8.92116C42.3538 8.63187 41.8367 8.48722 41.2643 8.48722C40.6919 8.48722 40.1733 8.63187 39.7085 8.92116C39.2469 9.21046 38.8791 9.63672 38.6052 10.1999C38.3344 10.7631 38.199 11.4541 38.199 12.2727C38.199 13.0914 38.3344 13.7823 38.6052 14.3455C38.8791 14.9087 39.2469 15.335 39.7085 15.6243C40.1733 15.9136 40.6919 16.0582 41.2643 16.0582C41.8367 16.0582 42.3538 15.9136 42.8154 15.6243C43.2802 15.335 43.6479 14.9087 43.9188 14.3455C44.1927 13.7823 44.3296 13.0914 44.3296 12.2727ZM55.3399 12.2727C55.3399 13.2699 55.1599 14.1316 54.7998 14.858C54.4397 15.5843 53.9458 16.1444 53.3179 16.5384C52.6901 16.9323 51.973 17.1293 51.1666 17.1293C50.3603 17.1293 49.6432 16.9323 49.0154 16.5384C48.3875 16.1444 47.8936 15.5843 47.5335 14.858C47.1734 14.1316 46.9933 13.2699 46.9933 12.2727C46.9933 11.2756 47.1734 10.4138 47.5335 9.6875C47.8936 8.96117 48.3875 8.40104 49.0154 8.0071C49.6432 7.61316 50.3603 7.41619 51.1666 7.41619C51.973 7.41619 52.6901 7.61316 53.3179 8.0071C53.9458 8.40104 54.4397 8.96117 54.7998 9.6875C55.1599 10.4138 55.3399 11.2756 55.3399 12.2727ZM54.232 12.2727C54.232 11.4541 54.095 10.7631 53.8211 10.1999C53.5503 9.63672 53.1825 9.21046 52.7178 8.92116C52.2561 8.63187 51.7391 8.48722 51.1666 8.48722C50.5942 8.48722 50.0756 8.63187 49.6109 8.92116C49.1492 9.21046 48.7815 9.63672 48.5075 10.1999C48.2367 10.7631 48.1013 11.4541 48.1013 12.2727C48.1013 13.0914 48.2367 13.7823 48.5075 14.3455C48.7815 14.9087 49.1492 15.335 49.6109 15.6243C50.0756 15.9136 50.5942 16.0582 51.1666 16.0582C51.7391 16.0582 52.2561 15.9136 52.7178 15.6243C53.1825 15.335 53.5503 14.9087 53.8211 14.3455C54.095 13.7823 54.232 13.0914 54.232 12.2727ZM57.265 7.54545H58.6315L61.8445 15.3935H61.9553L65.1684 7.54545H66.5349V17H65.4639V9.81676H65.3715L62.417 17H61.3829L58.4284 9.81676H58.336V17H57.265V7.54545Z" fill="#404040"/>
</svg>
