<svg width="36" height="36" viewBox="0 0 36 36" fill="none" xmlns="http://www.w3.org/2000/svg">
<path d="M31.5 28.5V7.5C31.5 5.85 30.15 4.5 28.5 4.5H7.5C5.85 4.5 4.5 5.85 4.5 7.5V28.5C4.5 30.15 5.85 31.5 7.5 31.5H28.5C30.15 31.5 31.5 30.15 31.5 28.5ZM13.35 20.97L16.5 24.765L21.15 18.78C21.45 18.39 22.05 18.39 22.35 18.795L27.615 25.815C27.6986 25.9264 27.7495 26.0589 27.762 26.1976C27.7745 26.3364 27.7481 26.4758 27.6858 26.6004C27.6235 26.725 27.5278 26.8298 27.4093 26.903C27.2908 26.9762 27.1543 27.015 27.015 27.015H9.03C8.4 27.015 8.055 26.295 8.445 25.8L12.18 21C12.465 20.61 13.035 20.595 13.35 20.97Z" fill="#36465C"/>
</svg>
