<svg width="121" height="30" viewBox="0 0 121 30" fill="none" xmlns="http://www.w3.org/2000/svg">
<rect width="120.59" height="29.7106" rx="8" fill="#2ACC4E"/>
<path d="M45.5518 11.2215C45.495 10.6486 45.2511 10.2035 44.8203 9.8863C44.3894 9.56906 43.8046 9.41044 43.066 9.41044C42.5641 9.41044 42.1403 9.48147 41.7947 9.62351C41.4491 9.76082 41.1839 9.95258 40.9992 10.1988C40.8193 10.445 40.7294 10.7244 40.7294 11.0369C40.7199 11.2973 40.7743 11.5246 40.8927 11.7187C41.0158 11.9128 41.1839 12.0809 41.397 12.2229C41.61 12.3603 41.8563 12.481 42.1356 12.5852C42.415 12.6846 42.7133 12.7698 43.0305 12.8408L44.3373 13.1533C44.9718 13.2954 45.5542 13.4848 46.0845 13.7215C46.6148 13.9583 47.0741 14.2495 47.4623 14.5951C47.8506 14.9407 48.1512 15.3479 48.3643 15.8167C48.5821 16.2854 48.6934 16.8228 48.6981 17.4289C48.6934 18.3191 48.4661 19.0908 48.0163 19.7443C47.5712 20.3929 46.9273 20.8972 46.0845 21.257C45.2464 21.6121 44.2355 21.7897 43.0518 21.7897C41.8776 21.7897 40.8548 21.6098 39.9836 21.2499C39.1171 20.8901 38.4401 20.3574 37.9524 19.6519C37.4694 18.9417 37.2161 18.0634 37.1924 17.017H40.1683C40.2014 17.5047 40.3411 17.9119 40.5873 18.2386C40.8383 18.5605 41.1721 18.8044 41.5887 18.9701C42.0101 19.1311 42.486 19.2116 43.0163 19.2116C43.5371 19.2116 43.9893 19.1358 44.3728 18.9843C44.7611 18.8328 45.0617 18.6221 45.2748 18.3522C45.4879 18.0823 45.5944 17.7722 45.5944 17.4218C45.5944 17.0951 45.4974 16.8205 45.3032 16.5979C45.1138 16.3754 44.8345 16.186 44.4652 16.0298C44.1006 15.8735 43.6531 15.7315 43.1228 15.6036L41.539 15.2059C40.3127 14.9076 39.3444 14.4412 38.6342 13.8068C37.924 13.1723 37.5712 12.3176 37.5759 11.2428C37.5712 10.3621 37.8056 9.59274 38.2791 8.93459C38.7573 8.27645 39.4131 7.76272 40.2464 7.3934C41.0797 7.02408 42.0267 6.83942 43.0873 6.83942C44.1669 6.83942 45.1091 7.02408 45.914 7.3934C46.7237 7.76272 47.3534 8.27645 47.8032 8.93459C48.253 9.59274 48.485 10.355 48.4992 11.2215H45.5518ZM53.8206 21.7897C53.1246 21.7897 52.5043 21.669 51.9598 21.4275C51.4153 21.1813 50.9844 20.8191 50.6672 20.3408C50.3547 19.8579 50.1985 19.2566 50.1985 18.5369C50.1985 17.9308 50.3097 17.4218 50.5323 17.0099C50.7548 16.5979 51.0578 16.2665 51.4414 16.0156C51.8249 15.7646 52.2605 15.5752 52.7482 15.4474C53.2406 15.3195 53.7567 15.2296 54.2965 15.1775C54.9309 15.1112 55.4423 15.0496 55.8306 14.9928C56.2188 14.9313 56.5005 14.8413 56.6757 14.7229C56.8509 14.6046 56.9385 14.4294 56.9385 14.1974V14.1548C56.9385 13.705 56.7965 13.3569 56.5124 13.1107C56.233 12.8645 55.8353 12.7414 55.3192 12.7414C54.7747 12.7414 54.3415 12.8621 54.0195 13.1036C53.6975 13.3404 53.4844 13.6387 53.3803 13.9985L50.582 13.7712C50.724 13.1084 51.0034 12.5354 51.4201 12.0525C51.8367 11.5648 52.3741 11.1907 53.0323 10.9303C53.6951 10.6652 54.4622 10.5326 55.3334 10.5326C55.9395 10.5326 56.5195 10.6036 57.0735 10.7457C57.6322 10.8877 58.127 11.1079 58.5578 11.4062C58.9934 11.7045 59.3367 12.088 59.5877 12.5568C59.8386 13.0208 59.9641 13.5771 59.9641 14.2258V21.5837H57.0948V20.071H57.0095C56.8344 20.4119 56.6 20.7125 56.3064 20.9729C56.0129 21.2286 55.6601 21.4299 55.2482 21.5766C54.8362 21.7187 54.3604 21.7897 53.8206 21.7897ZM54.6871 19.7016C55.1322 19.7016 55.5252 19.614 55.8661 19.4389C56.207 19.2589 56.4745 19.0175 56.6686 18.7144C56.8628 18.4114 56.9598 18.0681 56.9598 17.6846V16.5269C56.8651 16.5885 56.7349 16.6453 56.5692 16.6974C56.4082 16.7447 56.2259 16.7897 56.0223 16.8323C55.8187 16.8702 55.6151 16.9057 55.4115 16.9389C55.2079 16.9673 55.0233 16.9933 54.8576 17.017C54.5024 17.0691 54.1923 17.1519 53.9272 17.2656C53.662 17.3792 53.456 17.5331 53.3093 17.7272C53.1625 17.9166 53.0891 18.1533 53.0891 18.4374C53.0891 18.8494 53.2382 19.1642 53.5365 19.382C53.8396 19.5951 54.2231 19.7016 54.6871 19.7016ZM72.0912 10.6746L68.2773 21.5837H64.8682L61.0543 10.6746H64.2503L66.5159 18.48H66.6296L68.8881 10.6746H72.0912ZM78.2595 21.7968C77.1374 21.7968 76.1715 21.5695 75.3618 21.115C74.5569 20.6557 73.9366 20.007 73.501 19.169C73.0654 18.3262 72.8476 17.3295 72.8476 16.1789C72.8476 15.0568 73.0654 14.0719 73.501 13.2244C73.9366 12.3768 74.5498 11.7163 75.3405 11.2428C76.136 10.7693 77.0687 10.5326 78.1388 10.5326C78.8585 10.5326 79.5285 10.6486 80.1487 10.8806C80.7737 11.1079 81.3183 11.4512 81.7823 11.9104C82.251 12.3697 82.6156 12.9474 82.876 13.6434C83.1364 14.3347 83.2666 15.1443 83.2666 16.0724V16.9033H74.055V15.0283H80.4186C80.4186 14.5927 80.3239 14.2068 80.1345 13.8707C79.9452 13.5345 79.6824 13.2717 79.3462 13.0823C79.0148 12.8882 78.6289 12.7911 78.1885 12.7911C77.7292 12.7911 77.322 12.8977 76.9669 13.1107C76.6166 13.3191 76.3419 13.6008 76.1431 13.9559C75.9442 14.3063 75.8424 14.6969 75.8377 15.1278V16.9104C75.8377 17.4502 75.9371 17.9166 76.136 18.3096C76.3396 18.7026 76.626 19.0056 76.9953 19.2187C77.3647 19.4318 77.8026 19.5383 78.3093 19.5383C78.6454 19.5383 78.9532 19.4909 79.2326 19.3962C79.5119 19.3015 79.751 19.1595 79.9499 18.9701C80.1487 18.7807 80.3003 18.5487 80.4044 18.2741L83.2027 18.4587C83.0607 19.1311 82.7695 19.7182 82.3291 20.2201C81.8935 20.7173 81.3301 21.1055 80.6388 21.3849C79.9523 21.6595 79.1592 21.7968 78.2595 21.7968Z" fill="white"/>
</svg>
