<svg width="35" height="35" viewBox="0 0 37 37" fill="none" xmlns="http://www.w3.org/2000/svg">
<path d="M33.8125 0.507812H3.1875C2.4768 0.507812 1.79521 0.790136 1.29267 1.29267C0.790136 1.79521 0.507812 2.4768 0.507812 3.1875V33.8125C0.507812 34.5232 0.790136 35.2048 1.29267 35.7073C1.79521 36.2099 2.4768 36.4922 3.1875 36.4922H33.8125C34.5232 36.4922 35.2048 36.2099 35.7073 35.7073C36.2099 35.2048 36.4922 34.5232 36.4922 33.8125V3.1875C36.4922 2.4768 36.2099 1.79521 35.7073 1.29267C35.2048 0.790136 34.5232 0.507812 33.8125 0.507812ZM34.1953 33.8125C34.1953 33.914 34.155 34.0114 34.0832 34.0832C34.0114 34.155 33.914 34.1953 33.8125 34.1953H3.1875C3.08597 34.1953 2.9886 34.155 2.91681 34.0832C2.84502 34.0114 2.80469 33.914 2.80469 33.8125V3.1875C2.80469 3.08597 2.84502 2.9886 2.91681 2.91681C2.9886 2.84502 3.08597 2.80469 3.1875 2.80469H33.8125C33.914 2.80469 34.0114 2.84502 34.0832 2.91681C34.155 2.9886 34.1953 3.08597 34.1953 3.1875V33.8125ZM25.4366 13.1866L20.1231 18.5L25.4366 23.8134C25.5494 23.9186 25.6399 24.0454 25.7027 24.1862C25.7654 24.3271 25.7992 24.4792 25.8019 24.6334C25.8046 24.7876 25.7763 24.9408 25.7185 25.0838C25.6607 25.2268 25.5748 25.3567 25.4657 25.4657C25.3567 25.5748 25.2268 25.6607 25.0838 25.7185C24.9408 25.7763 24.7876 25.8046 24.6334 25.8019C24.4792 25.7992 24.3271 25.7654 24.1862 25.7027C24.0454 25.6399 23.9186 25.5494 23.8134 25.4366L18.5 20.1231L13.1866 25.4366C12.9689 25.6394 12.6809 25.7499 12.3834 25.7446C12.0859 25.7394 11.802 25.6188 11.5916 25.4084C11.3812 25.198 11.2606 24.9141 11.2554 24.6166C11.2501 24.3191 11.3606 24.0311 11.5634 23.8134L16.8769 18.5L11.5634 13.1866C11.3606 12.9689 11.2501 12.6809 11.2554 12.3834C11.2606 12.0859 11.3812 11.802 11.5916 11.5916C11.802 11.3812 12.0859 11.2606 12.3834 11.2554C12.6809 11.2501 12.9689 11.3606 13.1866 11.5634L18.5 16.8769L23.8134 11.5634C24.0311 11.3606 24.3191 11.2501 24.6166 11.2554C24.9141 11.2606 25.198 11.3812 25.4084 11.5916C25.6188 11.802 25.7394 12.0859 25.7446 12.3834C25.7499 12.6809 25.6394 12.9689 25.4366 13.1866Z" fill="#F24E1E"/>
</svg>
