<svg width="27" height="19" viewBox="0 0 27 19" fill="none" xmlns="http://www.w3.org/2000/svg">
<path d="M18.9 15.6217V18.025H0V15.6217C0 15.6217 0 10.815 9.45 10.815C18.9 10.815 18.9 15.6217 18.9 15.6217ZM14.175 4.20588C14.175 3.37405 13.8979 2.5609 13.3787 1.86925C12.8595 1.17761 12.1216 0.638541 11.2582 0.320212C10.3948 0.0018838 9.44476 -0.0814054 8.5282 0.080877C7.61164 0.243159 6.76972 0.643725 6.10892 1.23192C5.44812 1.82011 4.99811 2.56952 4.81579 3.38537C4.63347 4.20122 4.72705 5.04687 5.08467 5.81538C5.44229 6.58389 6.04791 7.24075 6.82493 7.70289C7.60195 8.16503 8.51548 8.4117 9.45 8.4117C10.7031 8.4117 11.905 7.96859 12.7911 7.17984C13.6772 6.3911 14.175 5.32133 14.175 4.20588ZM18.819 10.815C19.6489 11.3867 20.328 12.1133 20.8085 12.9438C21.2889 13.7742 21.5591 14.6883 21.6 15.6217V18.025H27V15.6217C27 15.6217 27 11.2596 18.819 10.815ZM17.55 6.31822e-05C16.6208 -0.00454245 15.712 0.242746 14.9445 0.709044C15.7645 1.72894 16.2055 2.95169 16.2055 4.20588C16.2055 5.46007 15.7645 6.68282 14.9445 7.70272C15.712 8.16902 16.6208 8.41631 17.55 8.4117C18.8031 8.4117 20.005 7.96859 20.8911 7.17984C21.7772 6.3911 22.275 5.32133 22.275 4.20588C22.275 3.09043 21.7772 2.02066 20.8911 1.23192C20.005 0.443175 18.8031 6.31822e-05 17.55 6.31822e-05Z" fill="#36465C"/>
</svg>
