<svg width="61" height="57" viewBox="0 0 61 57" fill="none" xmlns="http://www.w3.org/2000/svg">
<g filter="url(#filter0_d_141_50)">
<rect x="4" width="53" height="49" rx="7" fill="white"/>
</g>
<path d="M36.25 27H35.065L34.645 26.595C36.1658 24.831 37.0017 22.579 37 20.25C37 18.3216 36.4282 16.4366 35.3568 14.8332C34.2855 13.2298 32.7627 11.9801 30.9812 11.2422C29.1996 10.5042 27.2392 10.3111 25.3479 10.6873C23.4566 11.0636 21.7193 11.9922 20.3557 13.3557C18.9922 14.7193 18.0636 16.4566 17.6873 18.3479C17.3111 20.2392 17.5042 22.1996 18.2422 23.9812C18.9801 25.7627 20.2298 27.2855 21.8332 28.3568C23.4366 29.4282 25.3216 30 27.25 30C29.665 30 31.885 29.115 33.595 27.645L34 28.065V29.25L41.5 36.735L43.735 34.5L36.25 27ZM27.25 27C23.515 27 20.5 23.985 20.5 20.25C20.5 16.515 23.515 13.5 27.25 13.5C30.985 13.5 34 16.515 34 20.25C34 23.985 30.985 27 27.25 27Z" fill="black"/>
<g clip-path="url(#clip0_141_50)">
<path fill-rule="evenodd" clip-rule="evenodd" d="M25.843 15.2555C25.9408 15.2677 26.0352 15.299 26.1209 15.3477C26.2066 15.3964 26.2818 15.4615 26.3423 15.5392C26.4028 15.617 26.4474 15.7059 26.4735 15.801C26.4996 15.896 26.5068 15.9952 26.4945 16.093L26.3185 17.5H28.3065L28.506 15.907C28.5307 15.7096 28.6327 15.5301 28.7897 15.408C28.9468 15.2858 29.1459 15.2311 29.3433 15.2557C29.5406 15.2804 29.7201 15.3825 29.8423 15.5395C29.9644 15.6965 30.0192 15.8956 29.9945 16.093L29.8185 17.5H31C31.1989 17.5 31.3897 17.579 31.5303 17.7197C31.671 17.8603 31.75 18.0511 31.75 18.25C31.75 18.4489 31.671 18.6397 31.5303 18.7803C31.3897 18.921 31.1989 19 31 19H29.631L29.381 21H30.75C30.9489 21 31.1397 21.079 31.2803 21.2197C31.421 21.3603 31.5 21.5511 31.5 21.75C31.5 21.9489 31.421 22.1397 31.2803 22.2803C31.1397 22.421 30.9489 22.5 30.75 22.5H29.1935L28.9945 24.093C28.9698 24.2904 28.8678 24.4699 28.7108 24.592C28.5537 24.7141 28.3546 24.7689 28.1572 24.7442C27.9599 24.7196 27.7804 24.6175 27.6582 24.4605C27.5361 24.3035 27.4813 24.1044 27.506 23.907L27.6815 22.5H25.6935L25.4945 24.093C25.4823 24.1907 25.4509 24.2851 25.4023 24.3707C25.3536 24.4563 25.2885 24.5315 25.2108 24.592C25.133 24.6525 25.0441 24.6971 24.9491 24.7232C24.8542 24.7493 24.755 24.7564 24.6572 24.7442C24.5595 24.732 24.4651 24.7007 24.3795 24.652C24.2939 24.6033 24.2187 24.5382 24.1582 24.4605C24.0978 24.3827 24.0532 24.2938 24.0271 24.1989C24.0009 24.1039 23.9938 24.0047 24.006 23.907L24.1815 22.5H23.25C23.0511 22.5 22.8603 22.421 22.7197 22.2803C22.579 22.1397 22.5 21.9489 22.5 21.75C22.5 21.5511 22.579 21.3603 22.7197 21.2197C22.8603 21.079 23.0511 21 23.25 21H24.369L24.619 19H23.5C23.3011 19 23.1103 18.921 22.9697 18.7803C22.829 18.6397 22.75 18.4489 22.75 18.25C22.75 18.0511 22.829 17.8603 22.9697 17.7197C23.1103 17.579 23.3011 17.5 23.5 17.5H24.8065L25.006 15.907C25.0181 15.8092 25.0494 15.7148 25.098 15.6291C25.1466 15.5434 25.2117 15.4681 25.2894 15.4076C25.3671 15.347 25.456 15.3024 25.551 15.2762C25.646 15.25 25.7452 15.2433 25.843 15.2555ZM27.87 21L28.12 19H26.1315L25.8815 21H27.87Z" fill="black"/>
</g>
<defs>
<filter id="filter0_d_141_50" x="0" y="0" width="61" height="57" filterUnits="userSpaceOnUse" color-interpolation-filters="sRGB">
<feFlood flood-opacity="0" result="BackgroundImageFix"/>
<feColorMatrix in="SourceAlpha" type="matrix" values="0 0 0 0 0 0 0 0 0 0 0 0 0 0 0 0 0 0 127 0" result="hardAlpha"/>
<feOffset dy="4"/>
<feGaussianBlur stdDeviation="2"/>
<feComposite in2="hardAlpha" operator="out"/>
<feColorMatrix type="matrix" values="0 0 0 0 0 0 0 0 0 0 0 0 0 0 0 0 0 0 0.25 0"/>
<feBlend mode="normal" in2="BackgroundImageFix" result="effect1_dropShadow_141_50"/>
<feBlend mode="normal" in="SourceGraphic" in2="effect1_dropShadow_141_50" result="shape"/>
</filter>
<clipPath id="clip0_141_50">
<rect width="12" height="12" fill="white" transform="translate(21 14)"/>
</clipPath>
</defs>
</svg>
