<svg width="36" height="36" viewBox="0 0 36 36" fill="none" xmlns="http://www.w3.org/2000/svg">
<g clip-path="url(#clip0_66_409)">
<path d="M25.9999 32H24.2599C23.8475 31.7083 23.5009 31.3333 23.2425 30.8992C22.9841 30.4651 22.8197 29.9816 22.7599 29.48V28.13H13.2399V29.5C13.1775 29.9981 13.0118 30.4777 12.7535 30.9082C12.4953 31.3386 12.15 31.7105 11.7399 32H9.93994C9.67472 32 9.42037 32.1054 9.23283 32.2929C9.0453 32.4804 8.93994 32.7348 8.93994 33C8.93994 33.2652 9.0453 33.5196 9.23283 33.7071C9.42037 33.8946 9.67472 34 9.93994 34H26.0599C26.1943 34.0123 26.3298 33.9949 26.4567 33.949C26.5836 33.9031 26.6989 33.8298 26.7943 33.7344C26.8897 33.6389 26.963 33.5237 27.0089 33.3968C27.0548 33.2699 27.0722 33.1344 27.0599 33C27.0602 32.8635 27.0325 32.7283 26.9785 32.6029C26.9245 32.4775 26.8455 32.3645 26.7462 32.2708C26.6469 32.1771 26.5294 32.1048 26.4011 32.0582C26.2727 32.0116 26.1362 31.9918 25.9999 32Z" fill="black"/>
<path d="M32.5 3H3.5C3.10218 3 2.72064 3.15804 2.43934 3.43934C2.15804 3.72064 2 4.10218 2 4.5V25.5C2 25.8978 2.15804 26.2794 2.43934 26.5607C2.72064 26.842 3.10218 27 3.5 27H32.5C32.8978 27 33.2794 26.842 33.5607 26.5607C33.842 26.2794 34 25.8978 34 25.5V4.5C34 4.10218 33.842 3.72064 33.5607 3.43934C33.2794 3.15804 32.8978 3 32.5 3ZM31 21.83H5V7H31V21.83Z" fill="black"/>
</g>
<defs>
<clipPath id="clip0_66_409">
<rect width="36" height="36" fill="white"/>
</clipPath>
</defs>
</svg>
