<svg width="14" height="14" viewBox="0 0 14 14" fill="none" xmlns="http://www.w3.org/2000/svg">
<path opacity="0.3" d="M7.38237 11.8451C10.2619 11.8506 12.6106 9.51096 12.6161 6.63139C12.6216 3.75182 10.2819 1.4032 7.40234 1.3977C4.52277 1.39219 2.17415 3.73185 2.16864 6.61142C2.16314 9.49099 4.5028 11.8396 7.38237 11.8451ZM7.39735 4.00955L10.0042 6.6264L8.04532 6.62266L8.04032 9.23451L6.7344 9.23202L6.73939 6.62016L4.7805 6.61642L7.39735 4.00955Z" fill="black"/>
<path d="M7.38234 11.8452C4.50277 11.8397 2.16311 9.49104 2.16862 6.61147C2.17412 3.7319 4.52274 1.39224 7.40231 1.39775C10.2819 1.40325 12.6215 3.75187 12.616 6.63144C12.6105 9.51101 10.2619 11.8507 7.38234 11.8452ZM7.37985 13.1511C10.9842 13.158 13.9151 10.2383 13.922 6.63394C13.9289 3.02958 11.0092 0.0987069 7.40481 0.0918177C3.80045 0.0849286 0.869578 3.00462 0.862689 6.60898C0.8558 10.2133 3.77549 13.1442 7.37985 13.1511ZM6.73936 6.62021L6.73437 9.23206L8.0403 9.23456L8.04529 6.6227L10.0042 6.62645L7.39732 4.0096L4.78047 6.61646L6.73936 6.62021Z" fill="black"/>
</svg>
