<svg width="14" height="14" viewBox="0 0 14 14" fill="none" xmlns="http://www.w3.org/2000/svg">
<path opacity="0.3" d="M6.55208 1.31846C3.67251 1.31295 1.32389 3.65261 1.31838 6.53218C1.31288 9.41175 3.65254 11.7604 6.53211 11.7659C9.41168 11.7714 11.7603 9.43172 11.7658 6.55215C11.7713 3.67258 9.43165 1.32396 6.55208 1.31846ZM6.5371 9.15402L3.93024 6.53717L5.88913 6.54092L5.89412 3.92906L7.20005 3.93156L7.19506 6.54341L9.15395 6.54716L6.5371 9.15402Z" fill="black"/>
<path d="M6.55211 1.31841C9.43168 1.32391 11.7713 3.67253 11.7658 6.5521C11.7603 9.43167 9.41171 11.7713 6.53214 11.7658C3.65257 11.7603 1.31291 9.4117 1.31841 6.53213C1.32391 3.65256 3.67253 1.3129 6.55211 1.31841ZM6.5546 0.0124809C2.95024 0.00559146 0.0193719 2.92528 0.0124824 6.52964C0.00559296 10.134 2.92528 13.0649 6.52964 13.0718C10.134 13.0786 13.0649 10.159 13.0718 6.5546C13.0786 2.95024 10.159 0.0193704 6.5546 0.0124809ZM7.19508 6.54337L7.20008 3.93151L5.89415 3.92902L5.88916 6.54087L3.93027 6.53713L6.53713 9.15397L9.15398 6.54711L7.19508 6.54337Z" fill="black"/>
</svg>
