<svg width="77" height="75" viewBox="0 0 77 75" fill="none" xmlns="http://www.w3.org/2000/svg">
<g filter="url(#filter0_d_151_64)">
<path d="M38.1667 0C33.6798 0 29.2369 0.883747 25.0916 2.60078C20.9464 4.31782 17.1799 6.83452 14.0072 10.0072C7.59969 16.4147 4 25.1051 4 34.1667C4 49.2683 13.8058 62.0808 27.37 66.625C29.0783 66.8983 29.625 65.8392 29.625 64.9167V59.1425C20.1608 61.1925 18.145 54.5642 18.145 54.5642C16.5733 50.6008 14.3525 49.5417 14.3525 49.5417C11.2433 47.4233 14.5917 47.4917 14.5917 47.4917C18.0083 47.7308 19.8192 51.0108 19.8192 51.0108C22.7917 56.2042 27.8142 54.6667 29.7617 53.8467C30.0692 51.6258 30.9575 50.1225 31.9142 49.2683C24.3292 48.4142 16.3683 45.4758 16.3683 32.4583C16.3683 28.6658 17.6667 25.625 19.8875 23.1992C19.5458 22.345 18.35 18.7917 20.2292 14.1792C20.2292 14.1792 23.0992 13.2567 29.625 17.6642C32.3242 16.9125 35.2625 16.5367 38.1667 16.5367C41.0708 16.5367 44.0092 16.9125 46.7083 17.6642C53.2342 13.2567 56.1042 14.1792 56.1042 14.1792C57.9833 18.7917 56.7875 22.345 56.4458 23.1992C58.6667 25.625 59.965 28.6658 59.965 32.4583C59.965 45.51 51.97 48.38 44.3508 49.2342C45.5808 50.2933 46.7083 52.3775 46.7083 55.555V64.9167C46.7083 65.8392 47.255 66.9325 48.9975 66.625C62.5617 62.0467 72.3333 49.2683 72.3333 34.1667C72.3333 29.6798 71.4496 25.2369 69.7326 21.0916C68.0155 16.9464 65.4988 13.1799 62.3261 10.0072C59.1535 6.83452 55.387 4.31782 51.2417 2.60078C47.0964 0.883747 42.6535 0 38.1667 0Z" fill="black"/>
</g>
<defs>
<filter id="filter0_d_151_64" x="0" y="0" width="76.3335" height="74.678" filterUnits="userSpaceOnUse" color-interpolation-filters="sRGB">
<feFlood flood-opacity="0" result="BackgroundImageFix"/>
<feColorMatrix in="SourceAlpha" type="matrix" values="0 0 0 0 0 0 0 0 0 0 0 0 0 0 0 0 0 0 127 0" result="hardAlpha"/>
<feOffset dy="4"/>
<feGaussianBlur stdDeviation="2"/>
<feComposite in2="hardAlpha" operator="out"/>
<feColorMatrix type="matrix" values="0 0 0 0 0 0 0 0 0 0 0 0 0 0 0 0 0 0 0.25 0"/>
<feBlend mode="normal" in2="BackgroundImageFix" result="effect1_dropShadow_151_64"/>
<feBlend mode="normal" in="SourceGraphic" in2="effect1_dropShadow_151_64" result="shape"/>
</filter>
</defs>
</svg>
