<svg width="75" height="75" viewBox="0 0 75 75" fill="none" xmlns="http://www.w3.org/2000/svg">
<g filter="url(#filter0_d_151_60)">
<path d="M55.2969 0H19.7031C11.0305 0 4 7.03053 4 15.7031V51.2969C4 59.9695 11.0305 67 19.7031 67H55.2969C63.9695 67 71 59.9695 71 51.2969V15.7031C71 7.03053 63.9695 0 55.2969 0Z" fill="url(#paint0_radial_151_60)"/>
<path d="M55.2969 0H19.7031C11.0305 0 4 7.03053 4 15.7031V51.2969C4 59.9695 11.0305 67 19.7031 67H55.2969C63.9695 67 71 59.9695 71 51.2969V15.7031C71 7.03053 63.9695 0 55.2969 0Z" fill="url(#paint1_radial_151_60)"/>
<path d="M37.5024 7.32812C30.3946 7.32812 29.5024 7.35927 26.7109 7.4862C23.9246 7.61392 22.0227 8.05492 20.3587 8.70215C18.6371 9.37058 17.177 10.2649 15.7224 11.72C14.2664 13.1749 13.3721 14.6351 12.7016 16.3559C12.0526 18.0204 11.611 19.9231 11.4857 22.708C11.3608 25.4998 11.3281 26.3922 11.3281 33.5003C11.3281 40.6083 11.3595 41.4976 11.4862 44.2891C11.6144 47.0754 12.0554 48.9773 12.7021 50.6413C13.3711 52.3629 14.2654 53.823 15.7206 55.2776C17.1749 56.7336 18.6351 57.6299 20.3553 58.2984C22.0206 58.9456 23.9228 59.3866 26.7086 59.5143C29.5003 59.6413 30.3917 59.6724 37.4992 59.6724C44.6078 59.6724 45.4971 59.6413 48.2886 59.5143C51.0748 59.3866 52.9788 58.9456 54.6441 58.2984C56.3649 57.6299 57.823 56.7336 59.2771 55.2776C60.733 53.823 61.6271 52.3629 62.2979 50.6421C62.9412 48.9773 63.3829 47.0748 63.5138 44.2896C63.6392 41.4981 63.6719 40.6083 63.6719 33.5003C63.6719 26.3922 63.6392 25.5003 63.5138 22.7086C63.3829 19.9223 62.9412 18.0206 62.2979 16.3566C61.6271 14.6351 60.733 13.1749 59.2771 11.72C57.8214 10.2643 56.3655 9.37005 54.6426 8.70241C52.9741 8.05492 51.0712 7.61366 48.2849 7.4862C45.4931 7.35927 44.6044 7.32812 37.4942 7.32812H37.5024ZM35.1545 12.0446C35.8514 12.0435 36.629 12.0446 37.5024 12.0446C44.4905 12.0446 45.3186 12.0697 48.0781 12.195C50.6299 12.3118 52.0149 12.7381 52.9375 13.0964C54.1589 13.5706 55.0297 14.1378 55.9452 15.0541C56.8612 15.9701 57.4281 16.8424 57.9036 18.0638C58.2619 18.9851 58.6888 20.3701 58.805 22.9219C58.9303 25.6809 58.9575 26.5095 58.9575 33.4942C58.9575 40.479 58.9303 41.3079 58.805 44.0666C58.6882 46.6184 58.2619 48.0034 57.9036 48.9249C57.4294 50.1464 56.8612 51.0161 55.9452 51.9315C55.0291 52.8476 54.1594 53.4144 52.9375 53.8889C52.016 54.2488 50.6299 54.6741 48.0781 54.7908C45.3191 54.9162 44.4905 54.9434 37.5024 54.9434C30.5139 54.9434 29.6856 54.9162 26.9268 54.7908C24.3751 54.673 22.9901 54.2467 22.0667 53.8884C20.8455 53.4139 19.973 52.847 19.0569 51.931C18.1409 51.015 17.574 50.1448 17.0985 48.9228C16.7402 48.0013 16.3133 46.6163 16.1971 44.0645C16.0718 41.3055 16.0467 40.4769 16.0467 33.4877C16.0467 26.4988 16.0718 25.6743 16.1971 22.9153C16.3139 20.3636 16.7402 18.9785 17.0985 18.056C17.573 16.8345 18.1409 15.9622 19.0572 15.0462C19.9732 14.1302 20.8455 13.5631 22.067 13.0878C22.9895 12.7279 24.3751 12.3026 26.9268 12.1854C29.3412 12.0762 30.2768 12.0435 35.1545 12.038V12.0446ZM51.4729 16.3901C49.739 16.3901 48.3323 17.7956 48.3323 19.5297C48.3323 21.2636 49.739 22.6703 51.4729 22.6703C53.2068 22.6703 54.6135 21.2636 54.6135 19.5297C54.6135 17.7958 53.2068 16.3891 51.4729 16.3891V16.3901ZM37.5024 20.0597C30.08 20.0597 24.0621 26.0777 24.0621 33.5003C24.0621 40.9229 30.08 46.938 37.5024 46.938C44.925 46.938 50.9408 40.9229 50.9408 33.5003C50.9408 26.0779 44.9244 20.0597 37.5018 20.0597H37.5024ZM37.5024 24.7761C42.3203 24.7761 46.2265 28.6818 46.2265 33.5003C46.2265 38.3182 42.3203 42.2244 37.5024 42.2244C32.6841 42.2244 28.7785 38.3182 28.7785 33.5003C28.7785 28.6818 32.6841 24.7761 37.5024 24.7761Z" fill="white"/>
</g>
<defs>
<filter id="filter0_d_151_60" x="0" y="0" width="75" height="75" filterUnits="userSpaceOnUse" color-interpolation-filters="sRGB">
<feFlood flood-opacity="0" result="BackgroundImageFix"/>
<feColorMatrix in="SourceAlpha" type="matrix" values="0 0 0 0 0 0 0 0 0 0 0 0 0 0 0 0 0 0 127 0" result="hardAlpha"/>
<feOffset dy="4"/>
<feGaussianBlur stdDeviation="2"/>
<feComposite in2="hardAlpha" operator="out"/>
<feColorMatrix type="matrix" values="0 0 0 0 0 0 0 0 0 0 0 0 0 0 0 0 0 0 0.25 0"/>
<feBlend mode="normal" in2="BackgroundImageFix" result="effect1_dropShadow_151_60"/>
<feBlend mode="normal" in="SourceGraphic" in2="effect1_dropShadow_151_60" result="shape"/>
</filter>
<radialGradient id="paint0_radial_151_60" cx="0" cy="0" r="1" gradientUnits="userSpaceOnUse" gradientTransform="translate(21.7969 72.1603) rotate(-90) scale(66.402 61.7591)">
<stop stop-color="#FFDD55"/>
<stop offset="0.1" stop-color="#FFDD55"/>
<stop offset="0.5" stop-color="#FF543E"/>
<stop offset="1" stop-color="#C837AB"/>
</radialGradient>
<radialGradient id="paint1_radial_151_60" cx="0" cy="0" r="1" gradientUnits="userSpaceOnUse" gradientTransform="translate(-7.22276 4.82635) rotate(78.681) scale(29.682 122.35)">
<stop stop-color="#3771C8"/>
<stop offset="0.128" stop-color="#3771C8"/>
<stop offset="1" stop-color="#6600FF" stop-opacity="0"/>
</radialGradient>
</defs>
</svg>
