<svg width="1280" height="720" viewBox="0 0 1280 720" fill="none" xmlns="http://www.w3.org/2000/svg">
<g clip-path="url(#clip0_201_2)">
<rect width="1280" height="720" fill="#AEACFF"/>
<ellipse cx="1004.5" cy="240.5" rx="388.5" ry="408.5" fill="#726EFF"/>
<circle cx="670.5" cy="7.5" r="293.5" fill="#726EFF"/>
<g filter="url(#filter0_d_201_2)">
<path d="M864.545 269.136V252.909H941V269.136H912.5V346H893.045V269.136H864.545ZM974.92 347.364C967.739 347.364 961.557 345.909 956.375 343C951.223 340.061 947.254 335.909 944.466 330.545C941.678 325.152 940.284 318.773 940.284 311.409C940.284 304.227 941.678 297.924 944.466 292.5C947.254 287.076 951.178 282.848 956.239 279.818C961.33 276.788 967.299 275.273 974.148 275.273C978.754 275.273 983.042 276.015 987.011 277.5C991.011 278.955 994.496 281.152 997.466 284.091C1000.47 287.03 1002.8 290.727 1004.47 295.182C1006.13 299.606 1006.97 304.788 1006.97 310.727V316.045H948.011V304.045H988.739C988.739 301.258 988.133 298.788 986.92 296.636C985.708 294.485 984.027 292.803 981.875 291.591C979.754 290.348 977.284 289.727 974.466 289.727C971.527 289.727 968.92 290.409 966.648 291.773C964.405 293.106 962.648 294.909 961.375 297.182C960.102 299.424 959.451 301.924 959.42 304.682V316.091C959.42 319.545 960.057 322.53 961.33 325.045C962.633 327.561 964.466 329.5 966.83 330.864C969.193 332.227 971.996 332.909 975.239 332.909C977.39 332.909 979.36 332.606 981.148 332C982.936 331.394 984.466 330.485 985.739 329.273C987.011 328.061 987.981 326.576 988.648 324.818L1006.56 326C1005.65 330.303 1003.78 334.061 1000.97 337.273C998.178 340.455 994.572 342.939 990.148 344.727C985.754 346.485 980.678 347.364 974.92 347.364Z" fill="#F3F0F0"/>
<path d="M1038.97 252.909V346H1019.6V252.909H1038.97ZM1177.74 252.909L1175.97 318.091H1159.33L1157.51 252.909H1177.74ZM1167.65 347.182C1164.65 347.182 1162.07 346.121 1159.92 344C1157.77 341.848 1156.71 339.273 1156.74 336.273C1156.71 333.303 1157.77 330.758 1159.92 328.636C1162.07 326.515 1164.65 325.455 1167.65 325.455C1170.53 325.455 1173.06 326.515 1175.24 328.636C1177.42 330.758 1178.53 333.303 1178.56 336.273C1178.53 338.273 1178 340.106 1176.97 341.773C1175.97 343.409 1174.65 344.727 1173.01 345.727C1171.38 346.697 1169.59 347.182 1167.65 347.182Z" fill="#AEACFF"/>
<path d="M1089.98 313.636H1106.7L1115.11 324.455L1123.39 334.091L1138.98 353.636H1120.61L1109.89 340.455L1104.39 332.636L1089.98 313.636ZM1140.39 299.455C1140.39 309.606 1138.46 318.242 1134.61 325.364C1130.8 332.485 1125.58 337.924 1118.98 341.682C1112.4 345.409 1105.01 347.273 1096.8 347.273C1088.52 347.273 1081.1 345.394 1074.52 341.636C1067.95 337.879 1062.75 332.439 1058.93 325.318C1055.11 318.197 1053.2 309.576 1053.2 299.455C1053.2 289.303 1055.11 280.667 1058.93 273.545C1062.75 266.424 1067.95 261 1074.52 257.273C1081.1 253.515 1088.52 251.636 1096.8 251.636C1105.01 251.636 1112.4 253.515 1118.98 257.273C1125.58 261 1130.8 266.424 1134.61 273.545C1138.46 280.667 1140.39 289.303 1140.39 299.455ZM1120.43 299.455C1120.43 292.879 1119.45 287.333 1117.48 282.818C1115.54 278.303 1112.8 274.879 1109.25 272.545C1105.7 270.212 1101.55 269.045 1096.8 269.045C1092.04 269.045 1087.89 270.212 1084.34 272.545C1080.8 274.879 1078.04 278.303 1076.07 282.818C1074.13 287.333 1073.16 292.879 1073.16 299.455C1073.16 306.03 1074.13 311.576 1076.07 316.091C1078.04 320.606 1080.8 324.03 1084.34 326.364C1087.89 328.697 1092.04 329.864 1096.8 329.864C1101.55 329.864 1105.7 328.697 1109.25 326.364C1112.8 324.03 1115.54 320.606 1117.48 316.091C1119.45 311.576 1120.43 306.03 1120.43 299.455Z" fill="white"/>
</g>
</g>
<defs>
<filter id="filter0_d_201_2" x="860.545" y="251.636" width="322.011" height="110" filterUnits="userSpaceOnUse" color-interpolation-filters="sRGB">
<feFlood flood-opacity="0" result="BackgroundImageFix"/>
<feColorMatrix in="SourceAlpha" type="matrix" values="0 0 0 0 0 0 0 0 0 0 0 0 0 0 0 0 0 0 127 0" result="hardAlpha"/>
<feOffset dy="4"/>
<feGaussianBlur stdDeviation="2"/>
<feComposite in2="hardAlpha" operator="out"/>
<feColorMatrix type="matrix" values="0 0 0 0 0 0 0 0 0 0 0 0 0 0 0 0 0 0 0.25 0"/>
<feBlend mode="normal" in2="BackgroundImageFix" result="effect1_dropShadow_201_2"/>
<feBlend mode="normal" in="SourceGraphic" in2="effect1_dropShadow_201_2" result="shape"/>
</filter>
<clipPath id="clip0_201_2">
<rect width="1280" height="720" fill="white"/>
</clipPath>
</defs>
</svg>
