<svg width="253" height="92" viewBox="0 0 253 92" fill="none" xmlns="http://www.w3.org/2000/svg">
<path d="M-2 0H241C247.627 0 253 0.686497 253 1.53333V92H-2V0Z" fill="#36346A"/>
<g filter="url(#filter0_d_170_1201)">
<path d="M42.3082 28.9677V20.7273H81.1328V28.9677H66.6602V68H56.7809V28.9677H42.3082ZM98.358 68.6925C94.711 68.6925 91.5718 67.9538 88.9404 66.4766C86.3244 64.9839 84.3086 62.8757 82.8928 60.152C81.4771 57.4129 80.7693 54.1736 80.7693 50.4343C80.7693 46.7873 81.4771 43.5865 82.8928 40.832C84.3086 38.0775 86.3013 35.9309 88.8712 34.392C91.4564 32.8532 94.4879 32.0838 97.9656 32.0838C100.305 32.0838 102.482 32.4608 104.498 33.2148C106.529 33.9535 108.299 35.0691 109.807 36.5618C111.33 38.0545 112.515 39.9318 113.362 42.1939C114.208 44.4406 114.631 47.072 114.631 50.0881V52.7887H84.6933V46.695H105.375C105.375 45.2792 105.067 44.0251 104.452 42.9325C103.836 41.84 102.982 40.9859 101.89 40.3704C100.812 39.7395 99.5583 39.424 98.1272 39.424C96.6346 39.424 95.3112 39.7702 94.157 40.4627C93.0183 41.1398 92.1258 42.0554 91.4795 43.2095C90.8332 44.3482 90.5023 45.6178 90.487 47.0181V52.8118C90.487 54.5661 90.8101 56.0818 91.4564 57.359C92.1181 58.6362 93.0491 59.6211 94.2494 60.3136C95.4497 61.006 96.8731 61.3523 98.5196 61.3523C99.6122 61.3523 100.612 61.1984 101.52 60.8906C102.428 60.5829 103.205 60.1212 103.852 59.5057C104.498 58.8902 104.99 58.1361 105.329 57.2436L114.423 57.8438C113.962 60.0289 113.015 61.937 111.584 63.5682C110.169 65.1839 108.337 66.4458 106.091 67.3537C103.859 68.2462 101.282 68.6925 98.358 68.6925Z" fill="#F3F0F0"/>
<path d="M130.881 20.7273V68H121.048V20.7273H130.881ZM201.352 20.7273L200.451 53.8274H192.003L191.08 20.7273H201.352ZM196.227 68.6001C194.704 68.6001 193.396 68.0616 192.303 66.9844C191.211 65.8918 190.672 64.5838 190.688 63.0604C190.672 61.5523 191.211 60.2597 192.303 59.1825C193.396 58.1053 194.704 57.5668 196.227 57.5668C197.689 57.5668 198.974 58.1053 200.082 59.1825C201.19 60.2597 201.752 61.5523 201.767 63.0604C201.752 64.076 201.482 65.007 200.959 65.8533C200.451 66.6843 199.782 67.3537 198.951 67.8615C198.12 68.3539 197.212 68.6001 196.227 68.6001Z" fill="#AEACFF"/>
<path d="M156.785 51.5653H165.28L169.55 57.0589L173.751 61.9524L181.668 71.8778H172.343L166.895 65.1839L164.102 61.2138L156.785 51.5653ZM182.384 44.3636C182.384 49.5187 181.407 53.9044 179.452 57.5206C177.513 61.1368 174.867 63.899 171.512 65.8072C168.173 67.6999 164.418 68.6463 160.248 68.6463C156.047 68.6463 152.277 67.6922 148.937 65.7841C145.598 63.8759 142.959 61.1138 141.02 57.4975C139.081 53.8813 138.112 49.5033 138.112 44.3636C138.112 39.2086 139.081 34.8229 141.02 31.2067C142.959 27.5904 145.598 24.8359 148.937 22.9432C152.277 21.035 156.047 20.081 160.248 20.081C164.418 20.081 168.173 21.035 171.512 22.9432C174.867 24.8359 177.513 27.5904 179.452 31.2067C181.407 34.8229 182.384 39.2086 182.384 44.3636ZM172.251 44.3636C172.251 41.0244 171.75 38.2083 170.75 35.9155C169.765 33.6226 168.373 31.8838 166.572 30.6989C164.772 29.514 162.664 28.9215 160.248 28.9215C157.832 28.9215 155.724 29.514 153.923 30.6989C152.123 31.8838 150.722 33.6226 149.722 35.9155C148.737 38.2083 148.245 41.0244 148.245 44.3636C148.245 47.7029 148.737 50.5189 149.722 52.8118C150.722 55.1046 152.123 56.8435 153.923 58.0284C155.724 59.2133 157.832 59.8058 160.248 59.8058C162.664 59.8058 164.772 59.2133 166.572 58.0284C168.373 56.8435 169.765 55.1046 170.75 52.8118C171.75 50.5189 172.251 47.7029 172.251 44.3636Z" fill="white"/>
</g>
<defs>
<filter id="filter0_d_170_1201" x="38.3083" y="20.0811" width="167.459" height="59.7969" filterUnits="userSpaceOnUse" color-interpolation-filters="sRGB">
<feFlood flood-opacity="0" result="BackgroundImageFix"/>
<feColorMatrix in="SourceAlpha" type="matrix" values="0 0 0 0 0 0 0 0 0 0 0 0 0 0 0 0 0 0 127 0" result="hardAlpha"/>
<feOffset dy="4"/>
<feGaussianBlur stdDeviation="2"/>
<feComposite in2="hardAlpha" operator="out"/>
<feColorMatrix type="matrix" values="0 0 0 0 0 0 0 0 0 0 0 0 0 0 0 0 0 0 0.25 0"/>
<feBlend mode="normal" in2="BackgroundImageFix" result="effect1_dropShadow_170_1201"/>
<feBlend mode="normal" in="SourceGraphic" in2="effect1_dropShadow_170_1201" result="shape"/>
</filter>
</defs>
</svg>
