<svg width="97" height="39" viewBox="0 0 97 39" fill="none" xmlns="http://www.w3.org/2000/svg">
<rect width="97" height="39" fill="#36346A"/>
<g filter="url(#filter0_d_229_237)">
<path d="M22.9828 13.1886V10.2727H36.7207V13.1886H31.5996V27H28.1039V13.1886H22.9828ZM42.8158 27.245C41.5253 27.245 40.4145 26.9837 39.4834 26.4609C38.5578 25.9328 37.8445 25.1868 37.3435 24.223C36.8426 23.2538 36.5921 22.1076 36.5921 20.7844C36.5921 19.494 36.8426 18.3614 37.3435 17.3867C37.8445 16.4121 38.5496 15.6525 39.4589 15.108C40.3737 14.5634 41.4464 14.2912 42.677 14.2912C43.5046 14.2912 44.2751 14.4246 44.9884 14.6914C45.7071 14.9528 46.3333 15.3475 46.8669 15.8757C47.406 16.4039 47.8253 17.0682 48.1248 17.8686C48.4242 18.6636 48.574 19.5947 48.574 20.6619V21.6175H37.9806V19.4613H45.2988C45.2988 18.9603 45.1899 18.5166 44.9721 18.13C44.7543 17.7434 44.4521 17.4412 44.0655 17.2234C43.6843 17.0001 43.2405 16.8885 42.7341 16.8885C42.206 16.8885 41.7377 17.011 41.3293 17.256C40.9264 17.4956 40.6106 17.8196 40.3819 18.228C40.1532 18.6309 40.0361 19.0801 40.0307 19.5756V21.6257C40.0307 22.2464 40.145 22.7828 40.3737 23.2347C40.6078 23.6867 40.9373 24.0352 41.362 24.2802C41.7867 24.5252 42.2904 24.6477 42.873 24.6477C43.2596 24.6477 43.6135 24.5933 43.9348 24.4844C44.256 24.3755 44.531 24.2121 44.7597 23.9943C44.9884 23.7765 45.1626 23.5097 45.2824 23.1939L48.5005 23.4062C48.3371 24.1795 48.0022 24.8546 47.4959 25.4318C46.9949 26.0036 46.3469 26.45 45.552 26.7713C44.7624 27.0871 43.8504 27.245 42.8158 27.245Z" fill="#F3F0F0"/>
<path d="M54.324 10.2727V27H50.8446V10.2727H54.324ZM79.2597 10.2727L78.9412 21.9851H75.9518L75.6251 10.2727H79.2597ZM77.4465 27.2124C76.9074 27.2124 76.4446 27.0218 76.058 26.6406C75.6714 26.254 75.4808 25.7912 75.4863 25.2521C75.4808 24.7185 75.6714 24.2611 76.058 23.88C76.4446 23.4988 76.9074 23.3082 77.4465 23.3082C77.9638 23.3082 78.4184 23.4988 78.8105 23.88C79.2025 24.2611 79.4013 24.7185 79.4067 25.2521C79.4013 25.6115 79.306 25.9409 79.1209 26.2404C78.9412 26.5344 78.7043 26.7713 78.4103 26.951C78.1162 27.1252 77.795 27.2124 77.4465 27.2124Z" fill="#AEACFF"/>
<path d="M63.4901 21.1847H66.4958L68.0068 23.1286L69.4933 24.8601L72.2948 28.3722H68.9951L67.0675 26.0036L66.0792 24.5987L63.4901 21.1847ZM72.548 18.6364C72.548 20.4605 72.2022 22.0123 71.5107 23.2919C70.8246 24.5715 69.888 25.5489 68.701 26.2241C67.5194 26.8938 66.1908 27.2287 64.7152 27.2287C63.2287 27.2287 61.8947 26.8911 60.7131 26.2159C59.5315 25.5407 58.5977 24.5633 57.9116 23.2837C57.2255 22.0041 56.8825 20.455 56.8825 18.6364C56.8825 16.8123 57.2255 15.2604 57.9116 13.9808C58.5977 12.7012 59.5315 11.7266 60.7131 11.0568C61.8947 10.3816 63.2287 10.044 64.7152 10.044C66.1908 10.044 67.5194 10.3816 68.701 11.0568C69.888 11.7266 70.8246 12.7012 71.5107 13.9808C72.2022 15.2604 72.548 16.8123 72.548 18.6364ZM68.9624 18.6364C68.9624 17.4548 68.7854 16.4583 68.4315 15.647C68.083 14.8357 67.5902 14.2204 66.9531 13.8011C66.3161 13.3819 65.5701 13.1722 64.7152 13.1722C63.8603 13.1722 63.1144 13.3819 62.4773 13.8011C61.8402 14.2204 61.3447 14.8357 60.9908 15.647C60.6423 16.4583 60.4681 17.4548 60.4681 18.6364C60.4681 19.8179 60.6423 20.8144 60.9908 21.6257C61.3447 22.437 61.8402 23.0523 62.4773 23.4716C63.1144 23.8909 63.8603 24.1005 64.7152 24.1005C65.5701 24.1005 66.3161 23.8909 66.9531 23.4716C67.5902 23.0523 68.083 22.437 68.4315 21.6257C68.7854 20.8144 68.9624 19.8179 68.9624 18.6364Z" fill="white"/>
</g>
<defs>
<filter id="filter0_d_229_237" x="18.9828" y="10.0439" width="64.424" height="26.3281" filterUnits="userSpaceOnUse" color-interpolation-filters="sRGB">
<feFlood flood-opacity="0" result="BackgroundImageFix"/>
<feColorMatrix in="SourceAlpha" type="matrix" values="0 0 0 0 0 0 0 0 0 0 0 0 0 0 0 0 0 0 127 0" result="hardAlpha"/>
<feOffset dy="4"/>
<feGaussianBlur stdDeviation="2"/>
<feComposite in2="hardAlpha" operator="out"/>
<feColorMatrix type="matrix" values="0 0 0 0 0 0 0 0 0 0 0 0 0 0 0 0 0 0 0.25 0"/>
<feBlend mode="normal" in2="BackgroundImageFix" result="effect1_dropShadow_229_237"/>
<feBlend mode="normal" in="SourceGraphic" in2="effect1_dropShadow_229_237" result="shape"/>
</filter>
</defs>
</svg>
