<svg width="220" height="90" viewBox="0 0 220 90" fill="none" xmlns="http://www.w3.org/2000/svg">
<rect width="220" height="90" rx="10" fill="#36346A"/>
<g filter="url(#filter0_d_132_597)">
<path d="M25.3082 29.9677V21.7273H64.1328V29.9677H49.6602V69H39.7809V29.9677H25.3082ZM81.358 69.6925C77.711 69.6925 74.5718 68.9538 71.9404 67.4766C69.3244 65.9839 67.3086 63.8757 65.8928 61.152C64.4771 58.4129 63.7693 55.1736 63.7693 51.4343C63.7693 47.7873 64.4771 44.5865 65.8928 41.832C67.3086 39.0775 69.3013 36.9309 71.8712 35.392C74.4564 33.8532 77.4879 33.0838 80.9656 33.0838C83.3047 33.0838 85.4821 33.4608 87.498 34.2148C89.5292 34.9535 91.2989 36.0691 92.8069 37.5618C94.3303 39.0545 95.5152 40.9318 96.3616 43.1939C97.208 45.4406 97.6311 48.072 97.6311 51.0881V53.7887H67.6933V47.695H88.3751C88.3751 46.2792 88.0673 45.0251 87.4518 43.9325C86.8363 42.84 85.9822 41.9859 84.8896 41.3704C83.8125 40.7395 82.5583 40.424 81.1272 40.424C79.6346 40.424 78.3112 40.7702 77.157 41.4627C76.0183 42.1398 75.1258 43.0554 74.4795 44.2095C73.8332 45.3482 73.5023 46.6178 73.487 48.0181V53.8118C73.487 55.5661 73.8101 57.0818 74.4564 58.359C75.1181 59.6362 76.0491 60.6211 77.2494 61.3136C78.4497 62.006 79.8731 62.3523 81.5196 62.3523C82.6122 62.3523 83.6124 62.1984 84.5203 61.8906C85.4282 61.5829 86.2053 61.1212 86.8517 60.5057C87.498 59.8902 87.9904 59.1361 88.3289 58.2436L97.4234 58.8438C96.9617 61.0289 96.0154 62.937 94.5843 64.5682C93.1685 66.1839 91.3373 67.4458 89.0906 68.3537C86.8593 69.2462 84.2818 69.6925 81.358 69.6925Z" fill="#F3F0F0"/>
<path d="M113.881 21.7273V69H104.048V21.7273H113.881ZM184.352 21.7273L183.451 54.8274H175.003L174.08 21.7273H184.352ZM179.227 69.6001C177.704 69.6001 176.396 69.0616 175.303 67.9844C174.211 66.8918 173.672 65.5838 173.688 64.0604C173.672 62.5523 174.211 61.2597 175.303 60.1825C176.396 59.1053 177.704 58.5668 179.227 58.5668C180.689 58.5668 181.974 59.1053 183.082 60.1825C184.19 61.2597 184.752 62.5523 184.767 64.0604C184.752 65.076 184.482 66.007 183.959 66.8533C183.451 67.6843 182.782 68.3537 181.951 68.8615C181.12 69.3539 180.212 69.6001 179.227 69.6001Z" fill="#AEACFF"/>
<path d="M139.785 52.5653H148.28L152.55 58.0589L156.751 62.9524L164.668 72.8778H155.343L149.895 66.1839L147.102 62.2138L139.785 52.5653ZM165.384 45.3636C165.384 50.5187 164.407 54.9044 162.452 58.5206C160.513 62.1368 157.867 64.899 154.512 66.8072C151.173 68.6999 147.418 69.6463 143.248 69.6463C139.047 69.6463 135.277 68.6922 131.937 66.7841C128.598 64.8759 125.959 62.1138 124.02 58.4975C122.081 54.8813 121.112 50.5033 121.112 45.3636C121.112 40.2086 122.081 35.8229 124.02 32.2067C125.959 28.5904 128.598 25.8359 131.937 23.9432C135.277 22.035 139.047 21.081 143.248 21.081C147.418 21.081 151.173 22.035 154.512 23.9432C157.867 25.8359 160.513 28.5904 162.452 32.2067C164.407 35.8229 165.384 40.2086 165.384 45.3636ZM155.251 45.3636C155.251 42.0244 154.75 39.2083 153.75 36.9155C152.765 34.6226 151.373 32.8838 149.572 31.6989C147.772 30.514 145.664 29.9215 143.248 29.9215C140.832 29.9215 138.724 30.514 136.923 31.6989C135.123 32.8838 133.722 34.6226 132.722 36.9155C131.737 39.2083 131.245 42.0244 131.245 45.3636C131.245 48.7029 131.737 51.5189 132.722 53.8118C133.722 56.1046 135.123 57.8435 136.923 59.0284C138.724 60.2133 140.832 60.8058 143.248 60.8058C145.664 60.8058 147.772 60.2133 149.572 59.0284C151.373 57.8435 152.765 56.1046 153.75 53.8118C154.75 51.5189 155.251 48.7029 155.251 45.3636Z" fill="white"/>
</g>
<defs>
<filter id="filter0_d_132_597" x="21.3082" y="21.0811" width="167.459" height="59.7969" filterUnits="userSpaceOnUse" color-interpolation-filters="sRGB">
<feFlood flood-opacity="0" result="BackgroundImageFix"/>
<feColorMatrix in="SourceAlpha" type="matrix" values="0 0 0 0 0 0 0 0 0 0 0 0 0 0 0 0 0 0 127 0" result="hardAlpha"/>
<feOffset dy="4"/>
<feGaussianBlur stdDeviation="2"/>
<feComposite in2="hardAlpha" operator="out"/>
<feColorMatrix type="matrix" values="0 0 0 0 0 0 0 0 0 0 0 0 0 0 0 0 0 0 0.25 0"/>
<feBlend mode="normal" in2="BackgroundImageFix" result="effect1_dropShadow_132_597"/>
<feBlend mode="normal" in="SourceGraphic" in2="effect1_dropShadow_132_597" result="shape"/>
</filter>
</defs>
</svg>
