<svg width="25" height="25" viewBox="0 0 25 25" fill="none" xmlns="http://www.w3.org/2000/svg">
<path d="M4.16667 18.75C3.87153 18.75 3.62396 18.65 3.42396 18.45C3.22396 18.25 3.12431 18.0028 3.125 17.7083C3.125 17.4132 3.225 17.1656 3.425 16.9656C3.625 16.7656 3.87223 16.666 4.16667 16.6667H20.8333C21.1285 16.6667 21.376 16.7667 21.576 16.9667C21.776 17.1667 21.8757 17.4139 21.875 17.7083C21.875 18.0035 21.775 18.251 21.575 18.451C21.375 18.651 21.1278 18.7507 20.8333 18.75H4.16667ZM4.16667 13.5417C3.87153 13.5417 3.62396 13.4417 3.42396 13.2417C3.22396 13.0417 3.12431 12.7944 3.125 12.5C3.125 12.2049 3.225 11.9573 3.425 11.7573C3.625 11.5573 3.87223 11.4576 4.16667 11.4583H20.8333C21.1285 11.4583 21.376 11.5583 21.576 11.7583C21.776 11.9583 21.8757 12.2056 21.875 12.5C21.875 12.7951 21.775 13.0427 21.575 13.2427C21.375 13.4427 21.1278 13.5424 20.8333 13.5417H4.16667ZM4.16667 8.33334C3.87153 8.33334 3.62396 8.23334 3.42396 8.03334C3.22396 7.83334 3.12431 7.58611 3.125 7.29167C3.125 6.99653 3.225 6.74896 3.425 6.54896C3.625 6.34896 3.87223 6.24931 4.16667 6.25H20.8333C21.1285 6.25 21.376 6.35 21.576 6.55C21.776 6.75 21.8757 6.99723 21.875 7.29167C21.875 7.58681 21.775 7.83438 21.575 8.03438C21.375 8.23438 21.1278 8.33403 20.8333 8.33334H4.16667Z" fill="#36465C"/>
</svg>
