<svg width="750" height="79" viewBox="0 0 750 79" fill="none" xmlns="http://www.w3.org/2000/svg">
<g filter="url(#filter0_d_58_19)">
<rect x="4" width="742" height="71" rx="7" fill="white"/>
</g>
<g filter="url(#filter1_i_58_19)">
<rect x="110" y="12" width="591" height="40" rx="7" fill="#F3F0F0"/>
</g>
<ellipse cx="42.5" cy="33.5" rx="22.5" ry="21.5" fill="#36465C"/>
<path d="M119.199 37V26.0909H123.194C123.968 26.0909 124.609 26.2187 125.116 26.4744C125.624 26.7266 126.004 27.0692 126.256 27.5025C126.509 27.9322 126.635 28.4169 126.635 28.9567C126.635 29.4112 126.551 29.7947 126.384 30.1072C126.217 30.4162 125.994 30.6648 125.713 30.853C125.436 31.0376 125.131 31.1726 124.797 31.2578V31.3643C125.159 31.3821 125.512 31.4993 125.857 31.7159C126.205 31.929 126.493 32.2326 126.72 32.6268C126.947 33.021 127.061 33.5004 127.061 34.065C127.061 34.6225 126.929 35.1232 126.667 35.5671C126.407 36.0075 126.006 36.3572 125.463 36.6165C124.919 36.8722 124.225 37 123.38 37H119.199ZM120.844 35.5884H123.22C124.009 35.5884 124.573 35.4357 124.914 35.1303C125.255 34.8249 125.425 34.4432 125.425 33.9851C125.425 33.6406 125.338 33.3246 125.164 33.0369C124.99 32.7493 124.742 32.5202 124.419 32.3498C124.099 32.1793 123.719 32.0941 123.279 32.0941H120.844V35.5884ZM120.844 30.8104H123.05C123.419 30.8104 123.751 30.7393 124.046 30.5973C124.344 30.4553 124.58 30.2564 124.754 30.0007C124.932 29.7415 125.021 29.4361 125.021 29.0845C125.021 28.6335 124.863 28.2553 124.547 27.9499C124.23 27.6445 123.746 27.4918 123.092 27.4918H120.844V30.8104ZM134.068 33.6069V28.8182H135.666V37H134.1V35.5831H134.015C133.827 36.0199 133.525 36.3839 133.109 36.6751C132.697 36.9627 132.184 37.1065 131.57 37.1065C131.044 37.1065 130.579 36.9911 130.174 36.7603C129.773 36.5259 129.457 36.1797 129.226 35.7216C128.999 35.2635 128.885 34.6971 128.885 34.0224V28.8182H130.478V33.8306C130.478 34.3881 130.632 34.832 130.941 35.1623C131.25 35.4925 131.651 35.6577 132.145 35.6577C132.443 35.6577 132.74 35.5831 133.035 35.4339C133.333 35.2848 133.58 35.0593 133.775 34.7575C133.974 34.4556 134.072 34.0721 134.068 33.6069ZM140.187 37.1811C139.669 37.1811 139.2 37.0852 138.781 36.8935C138.362 36.6982 138.03 36.4158 137.785 36.0465C137.543 35.6772 137.422 35.2244 137.422 34.6882C137.422 34.2266 137.511 33.8466 137.689 33.5483C137.866 33.25 138.106 33.0138 138.408 32.8398C138.71 32.6658 139.047 32.5344 139.42 32.4457C139.793 32.3569 140.173 32.2894 140.56 32.2433C141.05 32.1864 141.448 32.1403 141.753 32.1048C142.059 32.0657 142.28 32.0036 142.419 31.9183C142.557 31.8331 142.627 31.6946 142.627 31.5028V31.4656C142.627 31.0004 142.495 30.6399 142.233 30.3842C141.973 30.1286 141.586 30.0007 141.071 30.0007C140.535 30.0007 140.112 30.1197 139.804 30.3576C139.498 30.592 139.287 30.853 139.17 31.1406L137.673 30.7997C137.85 30.3026 138.11 29.9013 138.451 29.5959C138.795 29.2869 139.191 29.0632 139.638 28.9247C140.086 28.7827 140.556 28.7116 141.05 28.7116C141.377 28.7116 141.723 28.7507 142.089 28.8288C142.458 28.9034 142.802 29.0419 143.122 29.2443C143.445 29.4467 143.71 29.7362 143.916 30.1126C144.122 30.4854 144.225 30.9702 144.225 31.5668V37H142.669V35.8814H142.605C142.502 36.0874 142.348 36.2898 142.142 36.4886C141.936 36.6875 141.671 36.8526 141.348 36.984C141.025 37.1154 140.638 37.1811 140.187 37.1811ZM140.533 35.9027C140.974 35.9027 141.35 35.8157 141.663 35.6417C141.979 35.4677 142.218 35.2404 142.382 34.9599C142.549 34.6758 142.632 34.3722 142.632 34.049V32.9943C142.575 33.0511 142.465 33.1044 142.302 33.1541C142.142 33.2003 141.959 33.2411 141.753 33.2766C141.547 33.3086 141.347 33.3388 141.151 33.3672C140.956 33.392 140.793 33.4134 140.661 33.4311C140.352 33.4702 140.07 33.5359 139.814 33.6282C139.562 33.7205 139.36 33.8537 139.207 34.0277C139.058 34.1982 138.983 34.4254 138.983 34.7095C138.983 35.1037 139.129 35.402 139.42 35.6044C139.711 35.8033 140.082 35.9027 140.533 35.9027ZM150.165 28.8182V30.0966H145.696V28.8182H150.165ZM146.895 26.858H148.487V34.5977C148.487 34.9066 148.534 35.1392 148.626 35.2955C148.718 35.4482 148.837 35.5529 148.983 35.6097C149.132 35.663 149.294 35.6896 149.468 35.6896C149.595 35.6896 149.707 35.6808 149.803 35.663C149.899 35.6452 149.974 35.631 150.027 35.6204L150.314 36.9361C150.222 36.9716 150.091 37.0071 149.92 37.0426C149.75 37.0817 149.537 37.103 149.281 37.1065C148.862 37.1136 148.471 37.0391 148.109 36.8828C147.747 36.7266 147.454 36.4851 147.23 36.1584C147.007 35.8317 146.895 35.4215 146.895 34.9279V26.858ZM153.696 26.0909V37H152.103V26.0909H153.696ZM158.219 37.1811C157.701 37.1811 157.232 37.0852 156.813 36.8935C156.394 36.6982 156.062 36.4158 155.817 36.0465C155.575 35.6772 155.455 35.2244 155.455 34.6882C155.455 34.2266 155.544 33.8466 155.721 33.5483C155.899 33.25 156.138 33.0138 156.44 32.8398C156.742 32.6658 157.079 32.5344 157.452 32.4457C157.825 32.3569 158.205 32.2894 158.592 32.2433C159.082 32.1864 159.48 32.1403 159.785 32.1048C160.091 32.0657 160.313 32.0036 160.451 31.9183C160.59 31.8331 160.659 31.6946 160.659 31.5028V31.4656C160.659 31.0004 160.528 30.6399 160.265 30.3842C160.006 30.1286 159.618 30.0007 159.104 30.0007C158.567 30.0007 158.145 30.1197 157.836 30.3576C157.53 30.592 157.319 30.853 157.202 31.1406L155.705 30.7997C155.883 30.3026 156.142 29.9013 156.483 29.5959C156.827 29.2869 157.223 29.0632 157.671 28.9247C158.118 28.7827 158.589 28.7116 159.082 28.7116C159.409 28.7116 159.755 28.7507 160.121 28.8288C160.49 28.9034 160.835 29.0419 161.154 29.2443C161.477 29.4467 161.742 29.7362 161.948 30.1126C162.154 30.4854 162.257 30.9702 162.257 31.5668V37H160.702V35.8814H160.638C160.535 36.0874 160.38 36.2898 160.174 36.4886C159.968 36.6875 159.704 36.8526 159.381 36.984C159.057 37.1154 158.67 37.1811 158.219 37.1811ZM158.566 35.9027C159.006 35.9027 159.382 35.8157 159.695 35.6417C160.011 35.4677 160.251 35.2404 160.414 34.9599C160.581 34.6758 160.664 34.3722 160.664 34.049V32.9943C160.607 33.0511 160.497 33.1044 160.334 33.1541C160.174 33.2003 159.991 33.2411 159.785 33.2766C159.579 33.3086 159.379 33.3388 159.183 33.3672C158.988 33.392 158.825 33.4134 158.693 33.4311C158.384 33.4702 158.102 33.5359 157.846 33.6282C157.594 33.7205 157.392 33.8537 157.239 34.0277C157.09 34.1982 157.015 34.4254 157.015 34.7095C157.015 35.1037 157.161 35.402 157.452 35.6044C157.743 35.8033 158.115 35.9027 158.566 35.9027ZM165.971 32.142V37H164.378V26.0909H165.95V30.1499H166.051C166.243 29.7095 166.536 29.3597 166.93 29.1005C167.324 28.8413 167.839 28.7116 168.475 28.7116C169.036 28.7116 169.526 28.8271 169.945 29.0579C170.367 29.2887 170.694 29.6332 170.925 30.0913C171.159 30.5458 171.276 31.114 171.276 31.7958V37H169.684V31.9876C169.684 31.3874 169.529 30.9222 169.22 30.592C168.911 30.2582 168.482 30.0913 167.931 30.0913C167.555 30.0913 167.217 30.1712 166.919 30.331C166.624 30.4908 166.392 30.7251 166.221 31.0341C166.054 31.3395 165.971 31.7088 165.971 32.142ZM183.502 30.8157L182.059 31.0714C181.999 30.8867 181.903 30.7109 181.771 30.544C181.643 30.3771 181.469 30.2404 181.249 30.1339C181.029 30.0273 180.754 29.9741 180.424 29.9741C179.973 29.9741 179.596 30.0753 179.294 30.2777C178.993 30.4766 178.842 30.734 178.842 31.0501C178.842 31.3235 178.943 31.5437 179.145 31.7106C179.348 31.8775 179.674 32.0142 180.125 32.1207L181.425 32.419C182.178 32.593 182.739 32.8612 183.108 33.2234C183.478 33.5856 183.662 34.0561 183.662 34.6349C183.662 35.125 183.52 35.5618 183.236 35.9453C182.956 36.3253 182.563 36.6236 182.059 36.8402C181.558 37.0568 180.978 37.1651 180.317 37.1651C179.401 37.1651 178.653 36.9698 178.075 36.5792C177.496 36.185 177.141 35.6257 177.009 34.9013L178.549 34.6669C178.645 35.0682 178.842 35.3718 179.14 35.5778C179.438 35.7802 179.827 35.8814 180.306 35.8814C180.828 35.8814 181.246 35.7731 181.558 35.5565C181.871 35.3363 182.027 35.0682 182.027 34.7521C182.027 34.4964 181.931 34.2816 181.739 34.1076C181.551 33.9336 181.262 33.8022 180.871 33.7134L179.486 33.4098C178.723 33.2358 178.158 32.9588 177.792 32.5788C177.43 32.1989 177.249 31.7177 177.249 31.1353C177.249 30.6523 177.384 30.2298 177.654 29.8675C177.924 29.5053 178.297 29.223 178.772 29.0206C179.248 28.8146 179.793 28.7116 180.408 28.7116C181.292 28.7116 181.988 28.9034 182.496 29.2869C183.004 29.6669 183.339 30.1765 183.502 30.8157ZM188.94 37.1651C188.134 37.1651 187.439 36.9929 186.857 36.6484C186.278 36.3004 185.831 35.8121 185.515 35.1836C185.202 34.5515 185.046 33.8111 185.046 32.9624C185.046 32.1243 185.202 31.3857 185.515 30.7464C185.831 30.1072 186.271 29.6083 186.836 29.2496C187.404 28.891 188.068 28.7116 188.828 28.7116C189.29 28.7116 189.737 28.788 190.17 28.9407C190.603 29.0934 190.992 29.3331 191.337 29.6598C191.681 29.9865 191.953 30.4109 192.152 30.9329C192.351 31.4513 192.45 32.0817 192.45 32.8239V33.3885H185.946V32.1953H190.889C190.889 31.7763 190.804 31.4052 190.634 31.082C190.463 30.7553 190.223 30.4979 189.915 30.3097C189.609 30.1214 189.25 30.0273 188.839 30.0273C188.391 30.0273 188 30.1374 187.667 30.3576C187.336 30.5742 187.081 30.8583 186.9 31.2099C186.722 31.5579 186.633 31.9361 186.633 32.3445V33.2766C186.633 33.8235 186.729 34.2887 186.921 34.6722C187.116 35.0558 187.388 35.3487 187.736 35.5511C188.084 35.75 188.491 35.8494 188.956 35.8494C189.258 35.8494 189.533 35.8068 189.781 35.7216C190.03 35.6328 190.245 35.5014 190.426 35.3274C190.607 35.1534 190.745 34.9386 190.841 34.6829L192.349 34.9545C192.228 35.3984 192.011 35.7873 191.699 36.1211C191.39 36.4513 191.001 36.7088 190.532 36.8935C190.067 37.0746 189.536 37.1651 188.94 37.1651ZM194.345 37V26.0909H195.938V30.1445H196.034C196.126 29.9741 196.259 29.777 196.433 29.5533C196.607 29.3295 196.849 29.1342 197.157 28.9673C197.466 28.7969 197.875 28.7116 198.383 28.7116C199.043 28.7116 199.633 28.8786 200.151 29.2124C200.67 29.5462 201.076 30.0273 201.371 30.6559C201.669 31.2844 201.818 32.0408 201.818 32.9251C201.818 33.8093 201.671 34.5675 201.376 35.1996C201.081 35.8281 200.677 36.3129 200.162 36.6538C199.647 36.9911 199.059 37.1598 198.399 37.1598C197.901 37.1598 197.495 37.0763 197.179 36.9094C196.866 36.7425 196.621 36.5472 196.444 36.3235C196.266 36.0998 196.129 35.9009 196.034 35.7269H195.9V37H194.345ZM195.906 32.9091C195.906 33.4844 195.989 33.9886 196.156 34.4219C196.323 34.8551 196.564 35.1942 196.881 35.4393C197.197 35.6808 197.584 35.8015 198.042 35.8015C198.518 35.8015 198.915 35.6754 199.235 35.4233C199.555 35.1676 199.796 34.8214 199.959 34.3846C200.126 33.9478 200.21 33.456 200.21 32.9091C200.21 32.3693 200.128 31.8846 199.965 31.4549C199.805 31.0252 199.563 30.6861 199.24 30.4375C198.921 30.1889 198.521 30.0646 198.042 30.0646C197.58 30.0646 197.189 30.1836 196.87 30.4215C196.554 30.6594 196.314 30.9915 196.151 31.4176C195.987 31.8437 195.906 32.3409 195.906 32.9091ZM208.79 33.6069V28.8182H210.388V37H208.822V35.5831H208.736C208.548 36.0199 208.246 36.3839 207.831 36.6751C207.419 36.9627 206.906 37.1065 206.291 37.1065C205.766 37.1065 205.301 36.9911 204.896 36.7603C204.495 36.5259 204.179 36.1797 203.948 35.7216C203.72 35.2635 203.607 34.6971 203.607 34.0224V28.8182H205.199V33.8306C205.199 34.3881 205.354 34.832 205.663 35.1623C205.972 35.4925 206.373 35.6577 206.867 35.6577C207.165 35.6577 207.462 35.5831 207.756 35.4339C208.055 35.2848 208.301 35.0593 208.497 34.7575C208.696 34.4556 208.793 34.0721 208.79 33.6069ZM214.909 37.1811C214.39 37.1811 213.922 37.0852 213.502 36.8935C213.083 36.6982 212.751 36.4158 212.506 36.0465C212.265 35.6772 212.144 35.2244 212.144 34.6882C212.144 34.2266 212.233 33.8466 212.411 33.5483C212.588 33.25 212.828 33.0138 213.13 32.8398C213.431 32.6658 213.769 32.5344 214.142 32.4457C214.515 32.3569 214.895 32.2894 215.282 32.2433C215.772 32.1864 216.169 32.1403 216.475 32.1048C216.78 32.0657 217.002 32.0036 217.141 31.9183C217.279 31.8331 217.348 31.6946 217.348 31.5028V31.4656C217.348 31.0004 217.217 30.6399 216.954 30.3842C216.695 30.1286 216.308 30.0007 215.793 30.0007C215.257 30.0007 214.834 30.1197 214.525 30.3576C214.22 30.592 214.009 30.853 213.891 31.1406L212.395 30.7997C212.572 30.3026 212.831 29.9013 213.172 29.5959C213.517 29.2869 213.913 29.0632 214.36 28.9247C214.808 28.7827 215.278 28.7116 215.772 28.7116C216.098 28.7116 216.445 28.7507 216.81 28.8288C217.18 28.9034 217.524 29.0419 217.844 29.2443C218.167 29.4467 218.431 29.7362 218.637 30.1126C218.843 30.4854 218.946 30.9702 218.946 31.5668V37H217.391V35.8814H217.327C217.224 36.0874 217.07 36.2898 216.864 36.4886C216.658 36.6875 216.393 36.8526 216.07 36.984C215.747 37.1154 215.36 37.1811 214.909 37.1811ZM215.255 35.9027C215.695 35.9027 216.072 35.8157 216.384 35.6417C216.7 35.4677 216.94 35.2404 217.103 34.9599C217.27 34.6758 217.354 34.3722 217.354 34.049V32.9943C217.297 33.0511 217.187 33.1044 217.023 33.1541C216.864 33.2003 216.681 33.2411 216.475 33.2766C216.269 33.3086 216.068 33.3388 215.873 33.3672C215.678 33.392 215.514 33.4134 215.383 33.4311C215.074 33.4702 214.792 33.5359 214.536 33.6282C214.284 33.7205 214.081 33.8537 213.929 34.0277C213.779 34.1982 213.705 34.4254 213.705 34.7095C213.705 35.1037 213.85 35.402 214.142 35.6044C214.433 35.8033 214.804 35.9027 215.255 35.9027ZM222.66 32.142V37H221.068V26.0909H222.639V30.1499H222.74C222.932 29.7095 223.225 29.3597 223.619 29.1005C224.013 28.8413 224.528 28.7116 225.164 28.7116C225.725 28.7116 226.215 28.8271 226.634 29.0579C227.057 29.2887 227.383 29.6332 227.614 30.0913C227.849 30.5458 227.966 31.114 227.966 31.7958V37H226.373V31.9876C226.373 31.3874 226.219 30.9222 225.91 30.592C225.601 30.2582 225.171 30.0913 224.621 30.0913C224.244 30.0913 223.907 30.1712 223.609 30.331C223.314 30.4908 223.081 30.7251 222.911 31.0341C222.744 31.3395 222.66 31.7088 222.66 32.142ZM237.88 28.8182V30.0966H233.411V28.8182H237.88ZM234.61 26.858H236.202V34.5977C236.202 34.9066 236.248 35.1392 236.341 35.2955C236.433 35.4482 236.552 35.5529 236.698 35.6097C236.847 35.663 237.008 35.6896 237.182 35.6896C237.31 35.6896 237.422 35.6808 237.518 35.663C237.614 35.6452 237.688 35.631 237.742 35.6204L238.029 36.9361C237.937 36.9716 237.806 37.0071 237.635 37.0426C237.465 37.0817 237.252 37.103 236.996 37.1065C236.577 37.1136 236.186 37.0391 235.824 36.8828C235.462 36.7266 235.169 36.4851 234.945 36.1584C234.721 35.8317 234.61 35.4215 234.61 34.9279V26.858ZM243 37.1651C242.233 37.1651 241.564 36.9893 240.992 36.6378C240.421 36.2862 239.977 35.7944 239.661 35.1623C239.345 34.5302 239.187 33.7915 239.187 32.9464C239.187 32.0977 239.345 31.3555 239.661 30.7198C239.977 30.0842 240.421 29.5906 240.992 29.239C241.564 28.8874 242.233 28.7116 243 28.7116C243.767 28.7116 244.437 28.8874 245.009 29.239C245.58 29.5906 246.024 30.0842 246.34 30.7198C246.656 31.3555 246.814 32.0977 246.814 32.9464C246.814 33.7915 246.656 34.5302 246.34 35.1623C246.024 35.7944 245.58 36.2862 245.009 36.6378C244.437 36.9893 243.767 37.1651 243 37.1651ZM243.006 35.8281C243.503 35.8281 243.915 35.6967 244.242 35.4339C244.568 35.1712 244.81 34.8214 244.966 34.3846C245.126 33.9478 245.206 33.4666 245.206 32.9411C245.206 32.419 245.126 31.9396 244.966 31.5028C244.81 31.0625 244.568 30.7092 244.242 30.4428C243.915 30.1765 243.503 30.0433 243.006 30.0433C242.505 30.0433 242.09 30.1765 241.759 30.4428C241.433 30.7092 241.189 31.0625 241.03 31.5028C240.873 31.9396 240.795 32.419 240.795 32.9411C240.795 33.4666 240.873 33.9478 241.03 34.3846C241.189 34.8214 241.433 35.1712 241.759 35.4339C242.09 35.6967 242.505 35.8281 243.006 35.8281ZM248.592 40.0682V28.8182H250.148V30.1445H250.281C250.373 29.9741 250.506 29.777 250.68 29.5533C250.854 29.3295 251.096 29.1342 251.405 28.9673C251.714 28.7969 252.122 28.7116 252.63 28.7116C253.29 28.7116 253.88 28.8786 254.398 29.2124C254.917 29.5462 255.323 30.0273 255.618 30.6559C255.916 31.2844 256.066 32.0408 256.066 32.9251C256.066 33.8093 255.918 34.5675 255.623 35.1996C255.329 35.8281 254.924 36.3129 254.409 36.6538C253.894 36.9911 253.306 37.1598 252.646 37.1598C252.149 37.1598 251.742 37.0763 251.426 36.9094C251.113 36.7425 250.868 36.5472 250.691 36.3235C250.513 36.0998 250.377 35.9009 250.281 35.7269H250.185V40.0682H248.592ZM250.153 32.9091C250.153 33.4844 250.236 33.9886 250.403 34.4219C250.57 34.8551 250.812 35.1942 251.128 35.4393C251.444 35.6808 251.831 35.8015 252.289 35.8015C252.765 35.8015 253.162 35.6754 253.482 35.4233C253.802 35.1676 254.043 34.8214 254.206 34.3846C254.373 33.9478 254.457 33.456 254.457 32.9091C254.457 32.3693 254.375 31.8846 254.212 31.4549C254.052 31.0252 253.811 30.6861 253.487 30.4375C253.168 30.1889 252.768 30.0646 252.289 30.0646C251.827 30.0646 251.437 30.1836 251.117 30.4215C250.801 30.6594 250.561 30.9915 250.398 31.4176C250.235 31.8437 250.153 32.3409 250.153 32.9091ZM257.85 37V28.8182H259.443V37H257.85ZM258.654 27.5558C258.377 27.5558 258.139 27.4634 257.941 27.2788C257.745 27.0906 257.648 26.8668 257.648 26.6076C257.648 26.3448 257.745 26.1211 257.941 25.9364C258.139 25.7482 258.377 25.6541 258.654 25.6541C258.931 25.6541 259.167 25.7482 259.363 25.9364C259.562 26.1211 259.661 26.3448 259.661 26.6076C259.661 26.8668 259.562 27.0906 259.363 27.2788C259.167 27.4634 258.931 27.5558 258.654 27.5558ZM263.05 34.2248L263.04 32.2805H263.316L266.576 28.8182H268.483L264.765 32.7599H264.515L263.05 34.2248ZM261.585 37V26.0909H263.178V37H261.585ZM266.752 37L263.823 33.1115L264.92 31.9982L268.707 37H266.752ZM270.984 37.1012C270.693 37.1012 270.443 36.9982 270.233 36.7923C270.024 36.5827 269.919 36.3306 269.919 36.0359C269.919 35.7447 270.024 35.4961 270.233 35.2901C270.443 35.0806 270.693 34.9759 270.984 34.9759C271.275 34.9759 271.526 35.0806 271.735 35.2901C271.945 35.4961 272.05 35.7447 272.05 36.0359C272.05 36.2312 272 36.4105 271.9 36.5739C271.805 36.7337 271.677 36.8615 271.517 36.9574C271.357 37.0533 271.18 37.1012 270.984 37.1012ZM275.232 37.1012C274.941 37.1012 274.691 36.9982 274.481 36.7923C274.272 36.5827 274.167 36.3306 274.167 36.0359C274.167 35.7447 274.272 35.4961 274.481 35.2901C274.691 35.0806 274.941 34.9759 275.232 34.9759C275.524 34.9759 275.774 35.0806 275.983 35.2901C276.193 35.4961 276.298 35.7447 276.298 36.0359C276.298 36.2312 276.248 36.4105 276.149 36.5739C276.053 36.7337 275.925 36.8615 275.765 36.9574C275.605 37.0533 275.428 37.1012 275.232 37.1012ZM279.48 37.1012C279.189 37.1012 278.939 36.9982 278.729 36.7923C278.52 36.5827 278.415 36.3306 278.415 36.0359C278.415 35.7447 278.52 35.4961 278.729 35.2901C278.939 35.0806 279.189 34.9759 279.48 34.9759C279.772 34.9759 280.022 35.0806 280.231 35.2901C280.441 35.4961 280.546 35.7447 280.546 36.0359C280.546 36.2312 280.496 36.4105 280.397 36.5739C280.301 36.7337 280.173 36.8615 280.013 36.9574C279.853 37.0533 279.676 37.1012 279.48 37.1012ZM283.728 37.1012C283.437 37.1012 283.187 36.9982 282.977 36.7923C282.768 36.5827 282.663 36.3306 282.663 36.0359C282.663 35.7447 282.768 35.4961 282.977 35.2901C283.187 35.0806 283.437 34.9759 283.728 34.9759C284.02 34.9759 284.27 35.0806 284.479 35.2901C284.689 35.4961 284.794 35.7447 284.794 36.0359C284.794 36.2312 284.744 36.4105 284.645 36.5739C284.549 36.7337 284.421 36.8615 284.261 36.9574C284.101 37.0533 283.924 37.1012 283.728 37.1012ZM287.976 37.1012C287.685 37.1012 287.435 36.9982 287.225 36.7923C287.016 36.5827 286.911 36.3306 286.911 36.0359C286.911 35.7447 287.016 35.4961 287.225 35.2901C287.435 35.0806 287.685 34.9759 287.976 34.9759C288.268 34.9759 288.518 35.0806 288.728 35.2901C288.937 35.4961 289.042 35.7447 289.042 36.0359C289.042 36.2312 288.992 36.4105 288.893 36.5739C288.797 36.7337 288.669 36.8615 288.509 36.9574C288.349 37.0533 288.172 37.1012 287.976 37.1012Z" fill="#626262"/>
<defs>
<filter id="filter0_d_58_19" x="0" y="0" width="750" height="79" filterUnits="userSpaceOnUse" color-interpolation-filters="sRGB">
<feFlood flood-opacity="0" result="BackgroundImageFix"/>
<feColorMatrix in="SourceAlpha" type="matrix" values="0 0 0 0 0 0 0 0 0 0 0 0 0 0 0 0 0 0 127 0" result="hardAlpha"/>
<feOffset dy="4"/>
<feGaussianBlur stdDeviation="2"/>
<feComposite in2="hardAlpha" operator="out"/>
<feColorMatrix type="matrix" values="0 0 0 0 0 0 0 0 0 0 0 0 0 0 0 0 0 0 0.25 0"/>
<feBlend mode="normal" in2="BackgroundImageFix" result="effect1_dropShadow_58_19"/>
<feBlend mode="normal" in="SourceGraphic" in2="effect1_dropShadow_58_19" result="shape"/>
</filter>
<filter id="filter1_i_58_19" x="110" y="12" width="591" height="44" filterUnits="userSpaceOnUse" color-interpolation-filters="sRGB">
<feFlood flood-opacity="0" result="BackgroundImageFix"/>
<feBlend mode="normal" in="SourceGraphic" in2="BackgroundImageFix" result="shape"/>
<feColorMatrix in="SourceAlpha" type="matrix" values="0 0 0 0 0 0 0 0 0 0 0 0 0 0 0 0 0 0 127 0" result="hardAlpha"/>
<feOffset dy="4"/>
<feGaussianBlur stdDeviation="2"/>
<feComposite in2="hardAlpha" operator="arithmetic" k2="-1" k3="1"/>
<feColorMatrix type="matrix" values="0 0 0 0 0 0 0 0 0 0 0 0 0 0 0 0 0 0 0.25 0"/>
<feBlend mode="normal" in2="shape" result="effect1_innerShadow_58_19"/>
</filter>
</defs>
</svg>
