<svg width="88" height="88" viewBox="0 0 88 88" fill="none" xmlns="http://www.w3.org/2000/svg">
<path d="M44 9.625C37.2013 9.625 30.5552 11.6411 24.9023 15.4182C19.2493 19.1954 14.8434 24.564 12.2417 30.8453C9.63989 37.1265 8.95915 44.0381 10.2855 50.7062C11.6119 57.3743 14.8858 63.4994 19.6932 68.3068C24.5007 73.1142 30.6257 76.3881 37.2938 77.7145C43.9619 79.0409 50.8735 78.3601 57.1548 75.7584C63.436 73.1566 68.8046 68.7507 72.5818 63.0977C76.359 57.4448 78.375 50.7987 78.375 44C78.365 34.8863 74.7402 26.1487 68.2958 19.7043C61.8514 13.2599 53.1138 9.63501 44 9.625ZM23.6741 68.2069C25.7143 64.6144 28.6701 61.6269 32.2406 59.5485C35.8111 57.4701 39.8687 56.3751 44 56.3751C48.1314 56.3751 52.1889 57.4701 55.7594 59.5485C59.3299 61.6269 62.2858 64.6144 64.326 68.2069C58.6366 72.9977 51.4378 75.6249 44 75.6249C36.5622 75.6249 29.3635 72.9977 23.6741 68.2069ZM66.4022 66.2991C62.9863 60.5882 57.5101 56.4051 51.1019 54.6116C54.0814 53.027 56.4454 50.4916 57.8178 47.4086C59.1902 44.3256 59.4921 40.8723 58.6756 37.5979C57.8591 34.3235 55.9709 31.4163 53.3116 29.3387C50.6524 27.2611 47.3746 26.1326 44 26.1326C40.6254 26.1326 37.3477 27.2611 34.6884 29.3387C32.0291 31.4163 30.141 34.3235 29.3244 37.5979C28.5079 40.8723 28.8099 44.3256 30.1823 47.4086C31.5546 50.4916 33.9186 53.027 36.8981 54.6116C30.4899 56.4051 25.0137 60.5882 21.5978 66.2991C17.1863 61.8717 14.1855 56.2365 12.9744 50.105C11.7633 43.9734 12.3962 37.6205 14.7932 31.8483C17.1901 26.0762 21.2436 21.1437 26.4419 17.6737C31.6401 14.2037 37.75 12.3518 44 12.3518C50.25 12.3518 56.3599 14.2037 61.5582 17.6737C66.7564 21.1437 70.8099 26.0762 73.2069 31.8483C75.6038 37.6205 76.2367 43.9734 75.0256 50.105C73.8145 56.2365 70.8137 61.8717 66.4022 66.2991ZM44 53.625C41.5525 53.625 39.1599 52.8992 37.1248 51.5394C35.0898 50.1797 33.5036 48.2469 32.567 45.9857C31.6304 43.7245 31.3853 41.2363 31.8628 38.8358C32.3403 36.4352 33.5189 34.2302 35.2496 32.4996C36.9802 30.7689 39.1853 29.5903 41.5858 29.1128C43.9863 28.6353 46.4745 28.8804 48.7357 29.817C50.997 30.7536 52.9297 32.3398 54.2895 34.3748C55.6492 36.4099 56.375 38.8025 56.375 41.25C56.375 44.5321 55.0712 47.6797 52.7505 50.0004C50.4297 52.3212 47.2821 53.625 44 53.625Z" fill="#282828"/>
<path d="M85.0759 48.05L81.6003 45.8561L81.6777 45.8067C81.9531 45.6308 82.3531 45.5 82.9578 45.5C83.5626 45.5 83.9615 45.6309 84.2353 45.8061L84.2363 45.8067L86.3046 47.1278C86.3459 47.1541 86.3796 47.1781 86.4071 47.1993C86.3984 47.2052 86.3892 47.2112 86.3795 47.2174L86.3785 47.218L85.0759 48.05ZM76.6598 48.9881L80.152 51.2186L66.8405 59.7209H62.5V58.0323L76.6598 48.9881Z" fill="#726EFF" stroke="black" stroke-width="3"/>
</svg>
