<svg width="22" height="22" viewBox="0 0 22 22" fill="none" xmlns="http://www.w3.org/2000/svg">
<path d="M19.3942 18.3559C19.3373 18.4544 19.2554 18.5363 19.1568 18.5932C19.0582 18.6501 18.9464 18.6801 18.8326 18.68H3.2722C3.15844 18.6799 3.04672 18.6499 2.94825 18.5929C2.84979 18.536 2.76803 18.4541 2.71121 18.3556C2.65438 18.257 2.62448 18.1453 2.62451 18.0315C2.62454 17.9178 2.6545 17.806 2.71137 17.7075C3.94567 15.5736 5.84776 14.0435 8.06754 13.3182C6.96954 12.6645 6.11646 11.6685 5.63931 10.4831C5.16215 9.29771 5.08732 7.98844 5.42629 6.75638C5.76525 5.52432 6.49929 4.43759 7.51566 3.66309C8.53203 2.88858 9.77454 2.46912 11.0524 2.46912C12.3302 2.46912 13.5727 2.88858 14.5891 3.66309C15.6055 4.43759 16.3395 5.52432 16.6785 6.75638C17.0174 7.98844 16.9426 9.29771 16.4655 10.4831C15.9883 11.6685 15.1352 12.6645 14.0372 13.3182C16.257 14.0435 18.1591 15.5736 19.3934 17.7075C19.4504 17.806 19.4805 17.9178 19.4806 18.0316C19.4808 18.1454 19.451 18.2572 19.3942 18.3559Z" fill="#505050"/>
</svg>
